<svg xmlns="http://www.w3.org/2000/svg" xmlns:xlink="http://www.w3.org/1999/xlink" width="1200" zoomAndPan="magnify" viewBox="0 0 900 899.99999" height="1200" preserveAspectRatio="xMidYMid meet" version="1.0"><defs><g/></defs><rect x="-90" width="1080" fill="#ffffff" y="-89.999999" height="1079.999988" fill-opacity="1"/><rect x="-90" width="1080" fill="#161311" y="-89.999999" height="1079.999988" fill-opacity="1"/><g fill="#d85a30" fill-opacity="1"><g transform="translate(0.972661, 603.925769)"><g><path d="M 139.609375 -297.515625 C 160.316406 -297.515625 179.679688 -293.679688 197.703125 -286.015625 C 215.722656 -278.359375 231.613281 -267.648438 245.375 -253.890625 C 259.132812 -240.128906 269.914062 -224.238281 277.71875 -206.21875 C 285.519531 -188.195312 289.421875 -168.832031 289.421875 -148.125 C 289.421875 -127.40625 285.519531 -108.035156 277.71875 -90.015625 C 269.914062 -72.003906 259.132812 -56.113281 245.375 -42.34375 C 231.613281 -28.582031 215.722656 -17.867188 197.703125 -10.203125 C 179.679688 -2.546875 160.316406 1.28125 139.609375 1.28125 C 138.753906 1.28125 138.328125 0.851562 138.328125 0 C 138.328125 -0.851562 138.753906 -1.28125 139.609375 -1.28125 C 152.941406 -1.28125 165.425781 -5.109375 177.0625 -12.765625 C 188.695312 -20.429688 198.984375 -31 207.921875 -44.46875 C 216.859375 -57.945312 223.804688 -73.550781 228.765625 -91.28125 C 233.734375 -109.019531 236.21875 -127.96875 236.21875 -148.125 C 236.21875 -168.269531 233.734375 -187.207031 228.765625 -204.9375 C 223.804688 -222.675781 216.859375 -238.28125 207.921875 -251.75 C 198.984375 -265.226562 188.695312 -275.726562 177.0625 -283.25 C 165.425781 -290.769531 152.941406 -294.53125 139.609375 -294.53125 L 84.703125 -294.53125 L 84.703125 0 C 84.703125 0.851562 84.132812 1.28125 83 1.28125 L 19.15625 1.28125 C 18.300781 1.28125 17.875 0.851562 17.875 0 C 17.875 -0.851562 18.300781 -1.28125 19.15625 -1.28125 C 24.257812 -1.28125 28.515625 -3.050781 31.921875 -6.59375 C 35.328125 -10.144531 37.03125 -14.332031 37.03125 -19.15625 L 37.03125 -277.078125 C 37.03125 -281.898438 35.328125 -286.015625 31.921875 -289.421875 C 28.515625 -292.828125 24.257812 -294.53125 19.15625 -294.53125 C 18.300781 -294.53125 17.875 -295.097656 17.875 -296.234375 C 17.875 -297.085938 18.300781 -297.515625 19.15625 -297.515625 Z M 139.609375 -297.515625 "/></g></g></g><g fill="#d85a30" fill-opacity="1"><g transform="translate(307.84233, 603.925769)"><g><path d="M 263.890625 -297.515625 C 264.742188 -297.515625 265.171875 -297.085938 265.171875 -296.234375 C 265.171875 -295.097656 264.742188 -294.53125 263.890625 -294.53125 C 259.066406 -294.53125 254.878906 -292.828125 251.328125 -289.421875 C 247.785156 -286.015625 246.015625 -281.898438 246.015625 -277.078125 L 246.015625 0 C 246.015625 0.851562 245.585938 1.28125 244.734375 1.28125 L 241.75 1.28125 C 241.1875 1.28125 240.765625 1.132812 240.484375 0.84375 L 50.65625 -276.234375 C 47.8125 -279.921875 44.265625 -283.46875 40.015625 -286.875 L 40.015625 -19.15625 C 40.015625 -14.332031 41.710938 -10.144531 45.109375 -6.59375 C 48.515625 -3.050781 52.628906 -1.28125 57.453125 -1.28125 C 58.585938 -1.28125 59.15625 -0.851562 59.15625 0 C 59.15625 0.851562 58.585938 1.28125 57.453125 1.28125 L 19.15625 1.28125 C 18.300781 1.28125 17.875 0.851562 17.875 0 C 17.875 -0.851562 18.300781 -1.28125 19.15625 -1.28125 C 24.257812 -1.28125 28.515625 -3.050781 31.921875 -6.59375 C 35.328125 -10.144531 37.03125 -14.332031 37.03125 -19.15625 L 37.03125 -288.578125 C 30.5 -292.546875 24.539062 -294.53125 19.15625 -294.53125 C 18.300781 -294.53125 17.875 -295.097656 17.875 -296.234375 C 17.875 -297.085938 18.300781 -297.515625 19.15625 -297.515625 L 92.359375 -297.515625 C 92.929688 -297.515625 93.359375 -297.375 93.640625 -297.09375 L 243.453125 -79.171875 L 243.453125 -277.078125 C 243.453125 -281.898438 241.675781 -286.015625 238.125 -289.421875 C 234.582031 -292.828125 230.398438 -294.53125 225.578125 -294.53125 C 224.722656 -294.53125 224.296875 -295.097656 224.296875 -296.234375 C 224.296875 -297.085938 224.722656 -297.515625 225.578125 -297.515625 Z M 263.890625 -297.515625 "/></g></g></g><g fill="#d85a30" fill-opacity="1"><g transform="translate(590.877435, 603.925769)"><g><path d="M 291.125 -149.390625 C 291.976562 -149.390625 292.40625 -148.96875 292.40625 -148.125 C 292.40625 -146.988281 291.976562 -146.421875 291.125 -146.421875 C 286.019531 -146.421875 281.765625 -144.71875 278.359375 -141.3125 C 274.953125 -137.90625 273.25 -133.789062 273.25 -128.96875 L 273.25 -42.140625 C 273.25 -41.859375 273.109375 -41.570312 272.828125 -41.28125 C 259.773438 -26.8125 244.734375 -15.320312 227.703125 -6.8125 C 227.703125 -6.8125 227.5625 -6.8125 227.28125 -6.8125 C 227 -6.8125 226.71875 -6.8125 226.4375 -6.8125 C 225.863281 -7.09375 225.578125 -7.519531 225.578125 -8.09375 L 225.578125 -128.96875 C 225.578125 -133.789062 223.875 -137.90625 220.46875 -141.3125 C 217.0625 -144.71875 212.945312 -146.421875 208.125 -146.421875 C 206.988281 -146.421875 206.421875 -146.988281 206.421875 -148.125 C 206.421875 -148.96875 206.988281 -149.390625 208.125 -149.390625 L 271.546875 -149.390625 C 271.546875 -149.390625 271.613281 -149.390625 271.75 -149.390625 C 271.894531 -149.390625 271.96875 -149.390625 271.96875 -149.390625 Z M 165.5625 4.6875 C 166.414062 4.6875 166.84375 5.109375 166.84375 5.953125 C 166.84375 7.085938 166.414062 7.65625 165.5625 7.65625 C 145.132812 7.65625 126.050781 3.613281 108.3125 -4.46875 C 90.582031 -12.550781 74.90625 -23.757812 61.28125 -38.09375 C 47.664062 -52.425781 37.023438 -69.023438 29.359375 -87.890625 C 21.703125 -106.765625 17.875 -126.84375 17.875 -148.125 C 17.875 -169.6875 21.703125 -189.898438 29.359375 -208.765625 C 37.023438 -227.640625 47.664062 -244.238281 61.28125 -258.5625 C 74.90625 -272.894531 90.582031 -284.101562 108.3125 -292.1875 C 126.050781 -300.28125 145.132812 -304.328125 165.5625 -304.328125 C 186.28125 -304.328125 206.003906 -299.925781 224.734375 -291.125 C 224.734375 -291.125 224.875 -291.125 225.15625 -291.125 C 227.425781 -289.988281 229.976562 -288.570312 232.8125 -286.875 C 233.101562 -286.875 233.25 -286.875 233.25 -286.875 C 234.09375 -286.300781 234.800781 -285.875 235.375 -285.59375 L 236.640625 -284.75 C 246.859375 -279.070312 255.515625 -278.21875 262.609375 -282.1875 C 267.710938 -285.3125 270.265625 -289.992188 270.265625 -296.234375 C 270.265625 -297.085938 270.832031 -297.515625 271.96875 -297.515625 C 272.820312 -297.515625 273.25 -297.085938 273.25 -296.234375 L 273.25 -239.203125 C 273.25 -238.347656 272.820312 -237.921875 271.96875 -237.921875 C 270.832031 -237.921875 270.265625 -238.347656 270.265625 -239.203125 C 270.265625 -242.890625 268.421875 -247.570312 264.734375 -253.25 C 261.046875 -258.925781 256.289062 -264.53125 250.46875 -270.0625 C 244.65625 -275.59375 238.488281 -280.34375 231.96875 -284.3125 C 231.96875 -284.3125 231.828125 -284.457031 231.546875 -284.75 C 228.703125 -286.164062 226.144531 -287.441406 223.875 -288.578125 C 223.59375 -288.578125 223.453125 -288.578125 223.453125 -288.578125 C 205.003906 -297.085938 185.707031 -301.34375 165.5625 -301.34375 C 152.507812 -301.34375 140.304688 -297.367188 128.953125 -289.421875 C 117.609375 -281.472656 107.535156 -270.476562 98.734375 -256.4375 C 89.941406 -242.394531 83.132812 -226.148438 78.3125 -207.703125 C 73.488281 -189.265625 71.078125 -169.40625 71.078125 -148.125 C 71.078125 -127.125 73.488281 -107.398438 78.3125 -88.953125 C 83.132812 -70.515625 89.941406 -54.269531 98.734375 -40.21875 C 107.535156 -26.175781 117.609375 -15.179688 128.953125 -7.234375 C 140.304688 0.710938 152.507812 4.6875 165.5625 4.6875 Z M 165.5625 4.6875 "/></g></g></g></svg>