<svg xmlns="http://www.w3.org/2000/svg" xmlns:xlink="http://www.w3.org/1999/xlink" width="2000" zoomAndPan="magnify" viewBox="0 0 1500 1499.999933" height="2000" preserveAspectRatio="xMidYMid meet" version="1.0"><defs><g/></defs><g fill="#d85a30" fill-opacity="1"><g transform="translate(249.264459, 863.394914)"><g><path d="M 34.265625 -60.5 L 32.125 -66.921875 C 31.050781 -66.921875 29.085938 -61.207031 26.234375 -49.78125 C 18.023438 -16.945312 13.921875 10.441406 13.921875 32.390625 C 13.921875 54.335938 17.664062 65.3125 25.15625 65.3125 C 26.226562 65.3125 45.328125 43.179688 82.453125 -1.078125 C 69.597656 -7.492188 58.882812 -16.054688 50.3125 -26.765625 C 41.75 -37.472656 36.398438 -48.71875 34.265625 -60.5 Z M 332.453125 -319.078125 C 337.453125 -326.210938 341.554688 -329.78125 344.765625 -329.78125 C 347.984375 -329.78125 349.59375 -325.316406 349.59375 -316.390625 C 349.59375 -300.691406 282.847656 -215.570312 149.359375 -61.03125 L 156.328125 -61.03125 C 170.242188 -61.03125 185.585938 -64.597656 202.359375 -71.734375 C 219.140625 -78.878906 234.488281 -87.445312 248.40625 -97.4375 C 275.882812 -116.707031 298.367188 -135.441406 315.859375 -153.640625 L 326.5625 -164.359375 C 329.78125 -167.921875 332.457031 -169.703125 334.59375 -169.703125 C 336.738281 -169.703125 337.8125 -168.988281 337.8125 -167.5625 C 337.8125 -165.425781 336.382812 -162.929688 333.53125 -160.078125 L 322.28125 -148.828125 C 317.289062 -143.828125 307.566406 -135.257812 293.109375 -123.125 C 278.648438 -111 264.550781 -100.296875 250.8125 -91.015625 C 237.070312 -81.734375 221.191406 -73.253906 203.171875 -65.578125 C 185.148438 -57.910156 169 -54.078125 154.71875 -54.078125 C 149.71875 -54.078125 146.148438 -54.253906 144.015625 -54.609375 C 129.378906 -39.265625 114.390625 -22.3125 99.046875 -3.75 C 110.816406 0.53125 122.054688 2.671875 132.765625 2.671875 C 167.742188 2.671875 207.003906 -9.726562 250.546875 -34.53125 C 294.085938 -59.332031 333.347656 -89.039062 368.328125 -123.65625 C 403.304688 -158.28125 432.835938 -195.046875 456.921875 -233.953125 C 481.015625 -272.859375 493.0625 -305.691406 493.0625 -332.453125 C 493.0625 -371.710938 467.722656 -391.34375 417.046875 -391.34375 C 385.992188 -391.34375 354.671875 -384.472656 323.078125 -370.734375 C 291.492188 -356.992188 263.566406 -339.238281 239.296875 -317.46875 C 215.035156 -295.695312 193.175781 -272.050781 173.71875 -246.53125 C 154.269531 -221.007812 139.367188 -195.9375 129.015625 -171.3125 C 118.671875 -146.6875 113.5 -124.554688 113.5 -104.921875 C 113.5 -85.296875 120.457031 -72.09375 134.375 -65.3125 C 246.082031 -204.863281 312.109375 -289.453125 332.453125 -319.078125 Z M 51.9375 -104.390625 L 48.71875 -81.90625 C 48.71875 -67.269531 52.285156 -53.347656 59.421875 -40.140625 C 66.554688 -26.941406 76.375 -16.59375 88.875 -9.09375 L 128.484375 -58.359375 C 107.429688 -67.273438 96.90625 -85.472656 96.90625 -112.953125 C 96.90625 -140.441406 104.929688 -170.15625 120.984375 -202.09375 C 137.046875 -234.039062 158.726562 -264.644531 186.03125 -293.90625 C 213.34375 -323.175781 248.054688 -347.800781 290.171875 -367.78125 C 332.285156 -387.769531 376.363281 -397.765625 422.40625 -397.765625 C 450.238281 -397.765625 470.9375 -391.519531 484.5 -379.03125 C 498.0625 -366.539062 504.84375 -348.960938 504.84375 -326.296875 C 504.84375 -303.640625 497.972656 -277.410156 484.234375 -247.609375 C 470.492188 -217.804688 451.128906 -188.003906 426.140625 -158.203125 C 401.160156 -128.398438 373.320312 -100.914062 342.625 -75.75 C 311.9375 -50.59375 277.492188 -30.160156 239.296875 -14.453125 C 201.109375 1.242188 163.992188 9.09375 127.953125 9.09375 C 115.460938 9.09375 103.863281 7.132812 93.15625 3.21875 C 66.738281 32.476562 46.570312 54.25 32.65625 68.53125 C 25.519531 75.664062 19.273438 79.234375 13.921875 79.234375 C 4.285156 79.234375 -0.53125 67.007812 -0.53125 42.5625 C -0.53125 18.113281 5.351562 -13.289062 17.125 -51.65625 C 28.90625 -90.03125 39.257812 -109.21875 48.1875 -109.21875 C 50.6875 -109.21875 51.9375 -107.609375 51.9375 -104.390625 Z M 51.9375 -104.390625 "/></g></g></g><g fill="#d85a30" fill-opacity="1"><g transform="translate(717.708584, 863.394914)"><g><path d="M 21.953125 -136.515625 C 7.316406 -136.515625 0 -144.546875 0 -160.609375 C 0 -195.222656 15.078125 -233.050781 45.234375 -274.09375 C 75.390625 -315.144531 112.503906 -349.765625 156.578125 -377.953125 C 200.660156 -406.148438 241.265625 -420.25 278.390625 -420.25 C 287.304688 -420.25 293.457031 -418.285156 296.84375 -414.359375 C 300.238281 -410.441406 301.9375 -404.019531 301.9375 -395.09375 C 301.9375 -374.394531 288.375 -341.5625 261.25 -296.59375 C 216.28125 -222.707031 159.535156 -146.328125 91.015625 -67.453125 C 89.941406 -66.378906 89.40625 -65.21875 89.40625 -63.96875 C 89.40625 -62.726562 89.757812 -62.109375 90.46875 -62.109375 C 91.1875 -62.109375 92.617188 -63.175781 94.765625 -65.3125 C 182.554688 -145.613281 231.628906 -190.941406 241.984375 -201.296875 C 252.335938 -211.648438 297.578125 -252.960938 377.703125 -325.234375 C 457.828125 -397.503906 499.671875 -433.640625 503.234375 -433.640625 C 506.804688 -433.640625 508.59375 -431.675781 508.59375 -427.75 C 508.59375 -414.90625 488.25 -381.800781 447.5625 -328.4375 C 406.875 -275.082031 361.992188 -219.492188 312.921875 -161.671875 C 263.847656 -103.859375 218.96875 -47.914062 178.28125 6.15625 C 137.59375 60.226562 117.25 94.222656 117.25 108.140625 C 117.25 109.566406 118.050781 110.28125 119.65625 110.28125 C 121.257812 110.28125 125.09375 108.316406 131.15625 104.390625 C 137.226562 100.460938 140.617188 98.5 141.328125 98.5 C 144.191406 98.5 145.625 99.394531 145.625 101.1875 C 145.625 101.894531 144.90625 102.785156 143.46875 103.859375 C 128.84375 113.492188 119.207031 118.3125 114.5625 118.3125 C 110.632812 118.3125 108.671875 115.992188 108.671875 111.359375 C 108.671875 92.441406 121.96875 61.742188 148.5625 19.265625 C 175.15625 -23.203125 207.363281 -68.257812 245.1875 -115.90625 C 283.019531 -163.550781 320.941406 -209.945312 358.953125 -255.09375 C 396.960938 -300.25 429.265625 -338.707031 455.859375 -370.46875 C 482.453125 -402.226562 495.75 -419.71875 495.75 -422.9375 C 495.75 -423.289062 495.390625 -423.46875 494.671875 -423.46875 C 493.953125 -423.46875 482.53125 -413.472656 460.40625 -393.484375 C 438.28125 -373.503906 410.976562 -348.613281 378.5 -318.8125 C 346.019531 -289.007812 313.894531 -259.5625 282.125 -230.46875 C 250.363281 -201.382812 221.8125 -175.242188 196.46875 -152.046875 C 171.132812 -128.847656 135.984375 -96.097656 91.015625 -53.796875 C 46.046875 -11.503906 23.378906 9.816406 23.015625 10.171875 C 19.453125 13.742188 15.257812 15.53125 10.4375 15.53125 C 5.625 15.53125 3.21875 14.722656 3.21875 13.109375 C 3.21875 11.503906 7.140625 5.53125 14.984375 -4.8125 C 22.835938 -15.164062 45.234375 -43.179688 82.171875 -88.859375 C 119.117188 -134.546875 151.867188 -175.503906 180.421875 -211.734375 C 208.972656 -247.960938 235.378906 -284.8125 259.640625 -322.28125 C 283.910156 -359.757812 296.046875 -385.457031 296.046875 -399.375 C 296.046875 -405.082031 294.707031 -409.097656 292.03125 -411.421875 C 289.351562 -413.742188 284.804688 -414.90625 278.390625 -414.90625 C 256.253906 -414.90625 232.070312 -407.941406 205.84375 -394.015625 C 179.613281 -380.097656 155.078125 -362.703125 132.234375 -341.828125 C 109.390625 -320.953125 88.332031 -298.820312 69.0625 -275.4375 C 49.789062 -252.0625 34.53125 -229.84375 23.28125 -208.78125 C 12.039062 -187.726562 6.421875 -171.222656 6.421875 -159.265625 C 6.421875 -147.304688 11.863281 -141.328125 22.75 -141.328125 C 33.632812 -141.328125 46.125 -144.894531 60.21875 -152.03125 C 74.320312 -159.175781 87.617188 -167.742188 100.109375 -177.734375 C 126.160156 -198.441406 146.503906 -217.003906 161.140625 -233.421875 L 170.78125 -244.125 C 172.5625 -246.269531 174.078125 -247.34375 175.328125 -247.34375 C 176.578125 -247.34375 177.203125 -246.535156 177.203125 -244.921875 C 177.203125 -243.316406 176.128906 -241.351562 173.984375 -239.03125 C 171.847656 -236.71875 168.726562 -233.238281 164.625 -228.59375 C 160.519531 -223.957031 152.21875 -215.75 139.71875 -203.96875 C 127.226562 -192.195312 115.09375 -181.757812 103.3125 -172.65625 C 91.539062 -163.550781 78.070312 -155.25 62.90625 -147.75 C 47.738281 -140.257812 34.085938 -136.515625 21.953125 -136.515625 Z M 21.953125 -136.515625 "/></g></g></g><g fill="#d85a30" fill-opacity="1"><g transform="translate(1079.079785, 863.394914)"><g><path d="M 25.15625 64.25 C 26.582031 64.25 29.257812 62.285156 33.1875 58.359375 C 37.113281 54.429688 50.859375 37.832031 74.421875 8.5625 C 59.785156 7.488281 46.929688 2.582031 35.859375 -6.15625 C 24.796875 -14.894531 17.304688 -25.332031 13.390625 -37.46875 C 13.023438 -38.539062 12.578125 -39.078125 12.046875 -39.078125 C 11.515625 -39.078125 10.800781 -34.171875 9.90625 -24.359375 C 9.007812 -14.546875 8.5625 -1.609375 8.5625 14.453125 C 8.5625 47.648438 14.09375 64.25 25.15625 64.25 Z M 236.09375 -56.75 C 211.820312 -40.6875 185.851562 -26.410156 158.1875 -13.921875 C 130.53125 -1.429688 107.242188 5.882812 88.328125 8.03125 L 32.125 71.203125 C 26.769531 76.910156 22.128906 79.765625 18.203125 79.765625 C 3.921875 79.765625 -3.21875 62.8125 -3.21875 28.90625 C -3.21875 -3.925781 1.601562 -37.117188 11.25 -70.671875 C 14.8125 -83.160156 17.84375 -89.40625 20.34375 -89.40625 L 25.703125 -84.046875 C 23.910156 -75.835938 23.015625 -68.703125 23.015625 -62.640625 C 23.015625 -44.078125 28.546875 -29.265625 39.609375 -18.203125 C 50.679688 -7.140625 64.425781 -1.070312 80.84375 0 C 155.070312 -91.726562 228.238281 -184.34375 300.34375 -277.84375 C 292.125 -272.132812 284.984375 -267.140625 278.921875 -262.859375 C 272.859375 -258.578125 258.40625 -249.117188 235.5625 -234.484375 C 212.71875 -219.847656 192.28125 -207.800781 174.25 -198.34375 C 156.226562 -188.882812 136.0625 -179.960938 113.75 -171.578125 C 91.445312 -163.191406 72.800781 -159 57.8125 -159 C 36.757812 -159 26.234375 -169.707031 26.234375 -191.125 C 26.234375 -204.332031 30.335938 -219.675781 38.546875 -237.15625 C 46.753906 -254.644531 59.15625 -272.578125 75.75 -290.953125 C 92.34375 -309.335938 111.4375 -326.289062 133.03125 -341.8125 C 154.625 -357.34375 180.5 -370.101562 210.65625 -380.09375 C 240.820312 -390.09375 271.960938 -395.09375 304.078125 -395.09375 C 320.140625 -395.09375 328.171875 -389.914062 328.171875 -379.5625 C 328.171875 -368.5 320.226562 -354.488281 304.34375 -337.53125 C 288.46875 -320.582031 268.929688 -305.503906 245.734375 -292.296875 C 222.535156 -279.097656 201.832031 -272.5 183.625 -272.5 C 177.195312 -272.851562 173.984375 -275.523438 173.984375 -280.515625 C 173.984375 -285.515625 176.210938 -290.515625 180.671875 -295.515625 C 185.140625 -300.515625 188.710938 -303.015625 191.390625 -303.015625 C 194.066406 -303.015625 195.40625 -302.476562 195.40625 -301.40625 C 195.40625 -300.332031 194.507812 -298.992188 192.71875 -297.390625 C 190.9375 -295.785156 190.046875 -294.359375 190.046875 -293.109375 C 190.046875 -291.859375 191.117188 -291.234375 193.265625 -291.234375 C 206.472656 -291.234375 223.425781 -296.765625 244.125 -307.828125 C 264.820312 -318.890625 282.84375 -331.46875 298.1875 -345.5625 C 313.539062 -359.664062 321.21875 -370.644531 321.21875 -378.5 C 321.21875 -385.28125 315.328125 -388.671875 303.546875 -388.671875 C 277.140625 -388.671875 247.695312 -380.550781 215.21875 -364.3125 C 182.738281 -348.070312 153.738281 -328.882812 128.21875 -306.75 C 102.695312 -284.625 81.191406 -262.050781 63.703125 -239.03125 C 46.210938 -216.007812 37.46875 -197.898438 37.46875 -184.703125 C 37.46875 -172.210938 45.5 -165.96875 61.5625 -165.96875 C 85.125 -165.96875 117.335938 -176.40625 158.203125 -197.28125 C 199.066406 -218.15625 234.664062 -239.300781 265 -260.71875 C 295.34375 -282.132812 313.007812 -296.410156 318 -303.546875 C 320.5 -306.753906 324.867188 -308.359375 331.109375 -308.359375 C 337.359375 -308.359375 340.484375 -306.570312 340.484375 -303 C 340.484375 -299.4375 338.519531 -294.800781 334.59375 -289.09375 C 268.925781 -202.007812 189.335938 -105.644531 95.828125 0 C 131.878906 -4.28125 175.957031 -23.910156 228.0625 -58.890625 L 263.9375 -81.375 C 266.4375 -82.800781 269.113281 -83.515625 271.96875 -83.515625 C 274.820312 -83.515625 276.25 -83.15625 276.25 -82.4375 C 276.25 -81.726562 275.710938 -81.015625 274.640625 -80.296875 Z M 236.09375 -56.75 "/></g></g></g><g fill="#4a1b0c" fill-opacity="1"><g transform="translate(544.449844, 969.780952)"><g><path d="M 19.84375 0.375 C 16.34375 0.375 13.320312 -0.453125 10.78125 -2.109375 C 8.238281 -3.773438 6.296875 -6.070312 4.953125 -9 C 3.617188 -11.9375 2.953125 -15.265625 2.953125 -18.984375 C 2.953125 -22.703125 3.617188 -26.023438 4.953125 -28.953125 C 6.296875 -31.890625 8.238281 -34.1875 10.78125 -35.84375 C 13.320312 -37.507812 16.34375 -38.34375 19.84375 -38.34375 C 24.0625 -38.34375 27.546875 -37.148438 30.296875 -34.765625 C 33.046875 -32.390625 34.890625 -29.1875 35.828125 -25.15625 L 31.265625 -25.15625 C 30.515625 -27.90625 29.132812 -30.09375 27.125 -31.71875 C 25.125 -33.34375 22.710938 -34.15625 19.890625 -34.15625 C 15.992188 -34.15625 13.007812 -32.785156 10.9375 -30.046875 C 8.863281 -27.316406 7.828125 -23.644531 7.828125 -19.03125 C 7.828125 -14.382812 8.863281 -10.691406 10.9375 -7.953125 C 13.007812 -5.222656 15.992188 -3.859375 19.890625 -3.859375 C 22.578125 -3.859375 24.882812 -4.582031 26.8125 -6.03125 C 28.738281 -7.476562 30.113281 -9.414062 30.9375 -11.84375 L 35.5 -11.84375 C 34.5 -8.132812 32.648438 -5.171875 29.953125 -2.953125 C 27.253906 -0.734375 23.882812 0.375 19.84375 0.375 Z M 19.84375 0.375 "/></g></g></g><g fill="#4a1b0c" fill-opacity="1"><g transform="translate(587.725994, 969.780952)"><g><path d="M 19.734375 0.375 C 16.160156 0.375 13.09375 -0.445312 10.53125 -2.09375 C 7.976562 -3.738281 6.039062 -6.023438 4.71875 -8.953125 C 3.394531 -11.890625 2.734375 -15.210938 2.734375 -18.921875 C 2.734375 -22.640625 3.398438 -25.972656 4.734375 -28.921875 C 6.078125 -31.878906 8.023438 -34.1875 10.578125 -35.84375 C 13.140625 -37.507812 16.191406 -38.34375 19.734375 -38.34375 C 23.234375 -38.34375 26.253906 -37.507812 28.796875 -35.84375 C 31.335938 -34.1875 33.269531 -31.890625 34.59375 -28.953125 C 35.914062 -26.023438 36.578125 -22.664062 36.578125 -18.875 C 36.578125 -15.125 35.914062 -11.800781 34.59375 -8.90625 C 33.269531 -6.007812 31.335938 -3.738281 28.796875 -2.09375 C 26.253906 -0.445312 23.234375 0.375 19.734375 0.375 Z M 19.6875 -3.921875 C 22.144531 -3.921875 24.285156 -4.550781 26.109375 -5.8125 C 27.929688 -7.082031 29.328125 -8.863281 30.296875 -11.15625 C 31.265625 -13.445312 31.75 -16.054688 31.75 -18.984375 C 31.75 -21.910156 31.265625 -24.519531 30.296875 -26.8125 C 29.328125 -29.101562 27.929688 -30.890625 26.109375 -32.171875 C 24.285156 -33.460938 22.144531 -34.109375 19.6875 -34.109375 C 17.21875 -34.109375 15.070312 -33.453125 13.25 -32.140625 C 11.425781 -30.835938 10.03125 -29.039062 9.0625 -26.75 C 8.09375 -24.46875 7.609375 -21.878906 7.609375 -18.984375 C 7.609375 -16.054688 8.09375 -13.457031 9.0625 -11.1875 C 10.03125 -8.914062 11.425781 -7.132812 13.25 -5.84375 C 15.070312 -4.5625 17.21875 -3.921875 19.6875 -3.921875 Z M 19.6875 -3.921875 "/></g></g></g><g fill="#4a1b0c" fill-opacity="1"><g transform="translate(632.235519, 969.780952)"><g><path d="M 4.015625 -37.53125 L 9.21875 -37.53125 L 29.328125 -7.40625 L 29.546875 -7.40625 L 29.546875 -37.53125 L 34.109375 -37.53125 L 34.109375 0 L 28.84375 0 L 8.796875 -29.703125 L 8.578125 -29.703125 L 8.578125 0 L 4.015625 0 Z M 4.015625 -37.53125 "/></g></g></g><g fill="#4a1b0c" fill-opacity="1"><g transform="translate(675.458042, 969.780952)"><g><path d="M 16.40625 0.421875 C 13.507812 0.421875 11.035156 -0.171875 8.984375 -1.359375 C 6.929688 -2.554688 5.382812 -4.101562 4.34375 -6 C 3.300781 -7.894531 2.78125 -9.878906 2.78125 -11.953125 L 2.78125 -12.21875 L 7.890625 -12.21875 L 7.890625 -11.953125 C 7.890625 -10.703125 8.179688 -9.453125 8.765625 -8.203125 C 9.359375 -6.953125 10.296875 -5.90625 11.578125 -5.0625 C 12.867188 -4.226562 14.515625 -3.8125 16.515625 -3.8125 C 18.878906 -3.8125 20.828125 -4.414062 22.359375 -5.625 C 23.898438 -6.84375 24.671875 -8.488281 24.671875 -10.5625 C 24.671875 -12.28125 24.109375 -13.644531 22.984375 -14.65625 C 21.859375 -15.675781 20.414062 -16.367188 18.65625 -16.734375 L 13.1875 -17.75 C 6.894531 -19.144531 3.75 -22.453125 3.75 -27.671875 C 3.75 -29.816406 4.265625 -31.691406 5.296875 -33.296875 C 6.335938 -34.910156 7.78125 -36.15625 9.625 -37.03125 C 11.46875 -37.90625 13.601562 -38.34375 16.03125 -38.34375 C 18.78125 -38.34375 21.140625 -37.785156 23.109375 -36.671875 C 25.078125 -35.566406 26.5625 -34.128906 27.5625 -32.359375 C 28.5625 -30.585938 29.0625 -28.753906 29.0625 -26.859375 L 29.0625 -26.65625 L 23.96875 -26.65625 L 23.96875 -26.8125 C 23.96875 -27.882812 23.707031 -28.984375 23.1875 -30.109375 C 22.675781 -31.234375 21.820312 -32.207031 20.625 -33.03125 C 19.425781 -33.851562 17.84375 -34.265625 15.875 -34.265625 C 13.625 -34.265625 11.828125 -33.640625 10.484375 -32.390625 C 9.140625 -31.140625 8.46875 -29.582031 8.46875 -27.71875 C 8.46875 -26.144531 8.984375 -24.859375 10.015625 -23.859375 C 11.054688 -22.859375 12.472656 -22.179688 14.265625 -21.828125 L 19.203125 -20.859375 C 26.097656 -19.460938 29.546875 -16.082031 29.546875 -10.71875 C 29.546875 -8.539062 29 -6.609375 27.90625 -4.921875 C 26.820312 -3.242188 25.273438 -1.929688 23.265625 -0.984375 C 21.265625 -0.046875 18.976562 0.421875 16.40625 0.421875 Z M 16.40625 0.421875 "/></g></g></g><g fill="#4a1b0c" fill-opacity="1"><g transform="translate(712.674557, 969.780952)"><g><path d="M 18.390625 0.484375 C 13.597656 0.484375 9.914062 -0.988281 7.34375 -3.9375 C 4.769531 -6.882812 3.484375 -11.078125 3.484375 -16.515625 L 3.484375 -37.53125 L 8.046875 -37.53125 L 8.046875 -16.671875 C 8.046875 -13.523438 8.734375 -10.617188 10.109375 -7.953125 C 11.484375 -5.296875 14.242188 -3.96875 18.390625 -3.96875 C 22.460938 -3.96875 25.175781 -5.289062 26.53125 -7.9375 C 27.894531 -10.582031 28.578125 -13.492188 28.578125 -16.671875 L 28.578125 -37.53125 L 33.140625 -37.53125 L 33.140625 -16.515625 C 33.140625 -11.078125 31.859375 -6.882812 29.296875 -3.9375 C 26.742188 -0.988281 23.109375 0.484375 18.390625 0.484375 Z M 18.390625 0.484375 "/></g></g></g><g fill="#4a1b0c" fill-opacity="1"><g transform="translate(754.449186, 969.780952)"><g><path d="M 26.171875 -4.1875 L 26.171875 0 L 4.015625 0 L 4.015625 -37.53125 L 8.6875 -37.53125 L 8.640625 -4.1875 Z M 26.171875 -4.1875 "/></g></g></g><g fill="#4a1b0c" fill-opacity="1"><g transform="translate(787.911959, 969.780952)"><g><path d="M 29.125 -33.359375 L 18.078125 -33.359375 L 18.078125 0 L 13.453125 0 L 13.453125 -33.359375 L 2.40625 -33.359375 L 2.40625 -37.53125 L 29.125 -37.53125 Z M 29.125 -33.359375 "/></g></g></g><g fill="#4a1b0c" fill-opacity="1"><g transform="translate(824.592216, 969.780952)"><g><path d="M 25.90625 -10.9375 L 10.625 -10.9375 L 6.65625 0 L 1.9375 0 L 16.03125 -37.53125 L 20.4375 -37.53125 L 34.640625 0 L 29.921875 0 Z M 24.5625 -14.640625 L 18.28125 -31.640625 L 18.078125 -31.640625 L 11.953125 -14.640625 Z M 24.5625 -14.640625 "/></g></g></g><g fill="#4a1b0c" fill-opacity="1"><g transform="translate(866.15237, 969.780952)"><g><path d="M 4.015625 -37.53125 L 9.21875 -37.53125 L 29.328125 -7.40625 L 29.546875 -7.40625 L 29.546875 -37.53125 L 34.109375 -37.53125 L 34.109375 0 L 28.84375 0 L 8.796875 -29.703125 L 8.578125 -29.703125 L 8.578125 0 L 4.015625 0 Z M 4.015625 -37.53125 "/></g></g></g><g fill="#4a1b0c" fill-opacity="1"><g transform="translate(909.374892, 969.780952)"><g><path d="M 29.125 -33.359375 L 18.078125 -33.359375 L 18.078125 0 L 13.453125 0 L 13.453125 -33.359375 L 2.40625 -33.359375 L 2.40625 -37.53125 L 29.125 -37.53125 Z M 29.125 -33.359375 "/></g></g></g><g fill="#4a1b0c" fill-opacity="1"><g transform="translate(193.057195, 779.867385)"><g><path d="M 15.25 12.859375 C 10.457031 12.859375 6.828125 11.875 4.359375 9.90625 C 1.890625 7.945312 0.945312 5.367188 1.53125 2.171875 C 2.25 -1.453125 4.859375 -5.367188 9.359375 -9.578125 C 13.867188 -13.796875 19.832031 -17.359375 27.25 -20.265625 C 30.738281 -24.773438 34.515625 -29.535156 38.578125 -34.546875 C 42.648438 -39.554688 46.71875 -44.347656 50.78125 -48.921875 C 54.851562 -53.503906 58.632812 -57.394531 62.125 -60.59375 C 62.414062 -60.882812 62.707031 -61.03125 63 -61.03125 C 63.863281 -61.03125 64.296875 -60.59375 64.296875 -59.71875 C 64.296875 -59.425781 64.148438 -59.132812 63.859375 -58.84375 C 59.066406 -54.34375 53.765625 -48.640625 47.953125 -41.734375 C 42.140625 -34.835938 36.691406 -28.191406 31.609375 -21.796875 C 35.097656 -22.960938 38.835938 -23.832031 42.828125 -24.40625 C 46.828125 -24.988281 51.078125 -25.28125 55.578125 -25.28125 C 58.046875 -25.28125 60.476562 -25.207031 62.875 -25.0625 C 65.28125 -24.914062 67.644531 -24.625 69.96875 -24.1875 C 70.695312 -23.90625 71.0625 -23.472656 71.0625 -22.890625 C 71.0625 -22.015625 70.625 -21.578125 69.75 -21.578125 L 69.53125 -21.578125 C 65.03125 -22.453125 60.378906 -22.890625 55.578125 -22.890625 C 50.640625 -22.890625 45.914062 -22.488281 41.40625 -21.6875 C 36.90625 -20.882812 32.765625 -19.757812 28.984375 -18.3125 C 25.640625 -13.945312 22.769531 -10.054688 20.375 -6.640625 C 17.976562 -3.234375 16.414062 -0.800781 15.6875 0.65625 C 15.257812 1.09375 14.898438 1.3125 14.609375 1.3125 C 13.734375 1.3125 13.296875 0.875 13.296875 0 C 13.296875 -0.289062 13.367188 -0.507812 13.515625 -0.65625 C 14.242188 -1.8125 15.550781 -3.804688 17.4375 -6.640625 C 19.320312 -9.472656 21.644531 -12.707031 24.40625 -16.34375 C 18.445312 -13.582031 13.6875 -10.457031 10.125 -6.96875 C 6.570312 -3.488281 4.503906 -0.296875 3.921875 2.609375 C 3.046875 7.703125 6.820312 10.25 15.25 10.25 C 23.101562 10.25 31.171875 8.359375 39.453125 4.578125 C 47.734375 0.796875 55.539062 -4.25 62.875 -10.5625 C 70.21875 -16.882812 76.429688 -23.929688 81.515625 -31.703125 C 86.609375 -39.484375 89.804688 -47.367188 91.109375 -55.359375 C 92.128906 -60.304688 91.296875 -64.160156 88.609375 -66.921875 C 85.921875 -69.679688 81.8125 -71.0625 76.28125 -71.0625 C 69.75 -71.0625 63.210938 -69.820312 56.671875 -67.34375 C 50.128906 -64.875 43.953125 -61.710938 38.140625 -57.859375 C 32.328125 -54.015625 27.09375 -49.875 22.4375 -45.4375 C 17.789062 -41.007812 14.160156 -36.832031 11.546875 -32.90625 C 11.398438 -32.476562 11.039062 -32.265625 10.46875 -32.265625 C 9.59375 -32.265625 9.15625 -32.695312 9.15625 -33.5625 C 9.15625 -33.707031 9.191406 -33.851562 9.265625 -34 C 9.335938 -34.144531 9.375 -34.21875 9.375 -34.21875 C 12.132812 -38.144531 15.875 -42.394531 20.59375 -46.96875 C 25.320312 -51.550781 30.695312 -55.835938 36.71875 -59.828125 C 42.75 -63.828125 49.179688 -67.097656 56.015625 -69.640625 C 62.847656 -72.179688 69.601562 -73.453125 76.28125 -73.453125 C 82.675781 -73.453125 87.4375 -71.816406 90.5625 -68.546875 C 93.6875 -65.273438 94.738281 -60.734375 93.71875 -54.921875 C 92.269531 -46.640625 88.929688 -38.503906 83.703125 -30.515625 C 78.472656 -22.523438 72.078125 -15.257812 64.515625 -8.71875 C 56.960938 -2.175781 48.898438 3.050781 40.328125 6.96875 C 31.753906 10.894531 23.394531 12.859375 15.25 12.859375 Z M 15.25 12.859375 "/></g></g></g><g fill="#4a1b0c" fill-opacity="1"><g transform="translate(283.7305, 779.867385)"><g><path d="M 7.1875 0.65625 C 3.988281 0.65625 1.484375 0.078125 -0.328125 -1.078125 C -2.140625 -2.242188 -3.046875 -3.921875 -3.046875 -6.109375 C -3.046875 -8.578125 -2.03125 -11.191406 0 -13.953125 C 2.03125 -16.710938 4.460938 -19.109375 7.296875 -21.140625 C 10.128906 -23.171875 12.710938 -24.1875 15.046875 -24.1875 C 17.660156 -24.1875 18.96875 -23.023438 18.96875 -20.703125 C 18.96875 -19.253906 17.984375 -17.875 16.015625 -16.5625 C 14.054688 -15.257812 12.0625 -14.609375 10.03125 -14.609375 C 7.5625 -14.609375 5.742188 -14.894531 4.578125 -15.46875 C 3.117188 -14.019531 1.914062 -12.457031 0.96875 -10.78125 C 0.03125 -9.113281 -0.4375 -7.554688 -0.4375 -6.109375 C -0.4375 -3.347656 2.101562 -1.96875 7.1875 -1.96875 C 9.375 -1.96875 12.789062 -2.617188 17.4375 -3.921875 C 22.082031 -5.234375 27.273438 -7.125 33.015625 -9.59375 C 38.753906 -12.0625 44.097656 -15.113281 49.046875 -18.75 C 49.191406 -18.894531 49.410156 -18.96875 49.703125 -18.96875 C 50.566406 -18.96875 51 -18.601562 51 -17.875 C 51 -17.4375 50.78125 -17.070312 50.34375 -16.78125 C 45.257812 -13 39.8125 -9.800781 34 -7.1875 C 28.1875 -4.570312 22.847656 -2.609375 17.984375 -1.296875 C 13.117188 0.00390625 9.519531 0.65625 7.1875 0.65625 Z M 10.03125 -17 C 11.1875 -17 12.5625 -17.46875 14.15625 -18.40625 C 15.757812 -19.351562 16.5625 -20.117188 16.5625 -20.703125 C 16.5625 -21.285156 16.054688 -21.578125 15.046875 -21.578125 C 13.734375 -21.578125 12.347656 -21.175781 10.890625 -20.375 C 9.441406 -19.582031 7.988281 -18.601562 6.53125 -17.4375 C 6.96875 -17.289062 7.476562 -17.179688 8.0625 -17.109375 C 8.644531 -17.035156 9.300781 -17 10.03125 -17 Z M 10.03125 -17 "/></g></g></g><g fill="#4a1b0c" fill-opacity="1"><g transform="translate(328.413244, 779.867385)"><g><path d="M -6.109375 0 C -7.554688 0 -8.132812 -0.796875 -7.84375 -2.390625 C -7.695312 -3.117188 -6.785156 -4.679688 -5.109375 -7.078125 C -3.441406 -9.484375 -1.300781 -12.242188 1.3125 -15.359375 C 3.925781 -18.484375 6.796875 -21.679688 9.921875 -24.953125 C 13.046875 -28.222656 16.207031 -31.019531 19.40625 -33.34375 C 19.539062 -33.488281 19.828125 -33.5625 20.265625 -33.5625 C 20.992188 -33.5625 21.359375 -33.203125 21.359375 -32.484375 C 21.359375 -32.046875 21.210938 -31.679688 20.921875 -31.390625 C 16.566406 -28.191406 12.28125 -24.191406 8.0625 -19.390625 C 3.851562 -14.597656 0.507812 -10.53125 -1.96875 -7.1875 C -2.101562 -6.894531 -2.132812 -6.601562 -2.0625 -6.3125 C -2 -6.03125 -1.675781 -6.035156 -1.09375 -6.328125 C 15.757812 -18.523438 26.804688 -24.625 32.046875 -24.625 C 34.367188 -24.625 35.53125 -23.609375 35.53125 -21.578125 C 35.53125 -20.554688 35.347656 -19.242188 34.984375 -17.640625 C 34.617188 -16.046875 34.289062 -14.453125 34 -12.859375 C 33.125 -10.097656 32.6875 -7.988281 32.6875 -6.53125 C 32.6875 -5.375 33.488281 -4.796875 35.09375 -4.796875 C 38.726562 -4.796875 43.59375 -6.066406 49.6875 -8.609375 C 55.789062 -11.148438 62.113281 -14.601562 68.65625 -18.96875 L 69.3125 -18.96875 C 70.1875 -18.96875 70.625 -18.601562 70.625 -17.875 C 70.625 -17.4375 70.40625 -17.070312 69.96875 -16.78125 C 63.28125 -12.425781 56.773438 -8.9375 50.453125 -6.3125 C 44.140625 -3.695312 39.019531 -2.390625 35.09375 -2.390625 C 31.75 -2.390625 30.078125 -3.769531 30.078125 -6.53125 C 30.078125 -7.257812 30.222656 -8.238281 30.515625 -9.46875 C 30.804688 -10.707031 31.097656 -12.054688 31.390625 -13.515625 C 31.828125 -15.109375 32.222656 -16.628906 32.578125 -18.078125 C 32.941406 -19.535156 33.125 -20.554688 33.125 -21.140625 C 33.125 -21.867188 32.765625 -22.234375 32.046875 -22.234375 C 29.710938 -22.234375 26.507812 -21.101562 22.4375 -18.84375 C 18.375 -16.59375 14.234375 -13.976562 10.015625 -11 C 5.804688 -8.019531 2.25 -5.515625 -0.65625 -3.484375 C -1.957031 -2.609375 -3.082031 -1.804688 -4.03125 -1.078125 C -4.976562 -0.359375 -5.671875 0 -6.109375 0 Z M -6.109375 0 "/></g></g></g><g fill="#4a1b0c" fill-opacity="1"><g transform="translate(392.712818, 779.867385)"><g><path d="M 15.6875 -28.125 C 14.820312 -28.125 14.390625 -28.484375 14.390625 -29.203125 C 14.390625 -29.640625 14.460938 -29.929688 14.609375 -30.078125 L 15.46875 -30.953125 C 15.757812 -31.390625 16.125 -31.894531 16.5625 -32.46875 C 17 -33.050781 17.289062 -33.488281 17.4375 -33.78125 C 17.726562 -34.070312 18.09375 -34.21875 18.53125 -34.21875 C 19.25 -34.21875 19.609375 -33.78125 19.609375 -32.90625 C 19.609375 -32.476562 19.539062 -32.191406 19.40625 -32.046875 C 18.820312 -31.460938 18.164062 -30.585938 17.4375 -29.421875 L 16.5625 -28.546875 C 16.414062 -28.265625 16.125 -28.125 15.6875 -28.125 Z M 1.75 1.3125 C -2.175781 1.3125 -4.140625 -0.578125 -4.140625 -4.359375 C -4.140625 -6.390625 -2.941406 -9.1875 -0.546875 -12.75 C 1.847656 -16.3125 5.082031 -20.125 9.15625 -24.1875 C 9.300781 -24.332031 9.59375 -24.40625 10.03125 -24.40625 C 10.894531 -24.40625 11.328125 -24.046875 11.328125 -23.328125 C 11.328125 -23.035156 11.179688 -22.742188 10.890625 -22.453125 C 7.265625 -18.671875 4.25 -15.109375 1.84375 -11.765625 C -0.550781 -8.421875 -1.75 -5.953125 -1.75 -4.359375 C -1.75 -2.328125 -0.582031 -1.3125 1.75 -1.3125 C 3.488281 -1.3125 5.992188 -1.851562 9.265625 -2.9375 C 12.535156 -4.03125 16.203125 -5.484375 20.265625 -7.296875 C 24.335938 -9.117188 28.332031 -11.046875 32.25 -13.078125 C 36.175781 -15.109375 39.519531 -17.070312 42.28125 -18.96875 L 42.9375 -18.96875 C 43.8125 -18.96875 44.25 -18.601562 44.25 -17.875 C 44.25 -17.4375 44.101562 -17.070312 43.8125 -16.78125 C 40.90625 -14.894531 37.453125 -12.894531 33.453125 -10.78125 C 29.460938 -8.675781 25.359375 -6.710938 21.140625 -4.890625 C 16.929688 -3.078125 13.117188 -1.585938 9.703125 -0.421875 C 6.285156 0.734375 3.632812 1.3125 1.75 1.3125 Z M 1.75 1.3125 "/></g></g></g><g fill="#4a1b0c" fill-opacity="1"><g transform="translate(430.856613, 779.867385)"><g><path d="M -0.875 10.46875 C -3.34375 10.46875 -4.578125 9.519531 -4.578125 7.625 C -4.578125 6.175781 -3.269531 4.613281 -0.65625 2.9375 C 1.957031 1.269531 5.082031 -0.359375 8.71875 -1.953125 C 12.351562 -3.554688 15.625 -4.867188 18.53125 -5.890625 C 18.820312 -5.890625 18.96875 -5.960938 18.96875 -6.109375 C 19.257812 -6.679688 19.582031 -7.222656 19.9375 -7.734375 C 20.300781 -8.242188 20.335938 -8.644531 20.046875 -8.9375 C 19.898438 -9.226562 18.847656 -9.265625 16.890625 -9.046875 C 14.929688 -8.828125 13.515625 -8.644531 12.640625 -8.5 C 11.335938 -8.351562 10.066406 -8.171875 8.828125 -7.953125 C 7.585938 -7.734375 6.390625 -7.625 5.234375 -7.625 C 1.742188 -7.625 0 -8.785156 0 -11.109375 C 0 -13.296875 1.160156 -15.625 3.484375 -18.09375 C 5.804688 -20.5625 8.566406 -22.703125 11.765625 -24.515625 C 14.960938 -26.335938 17.867188 -27.25 20.484375 -27.25 C 23.097656 -27.25 24.40625 -26.15625 24.40625 -23.96875 C 24.40625 -23.539062 24.332031 -23.253906 24.1875 -23.109375 C 23.46875 -20.203125 21.941406 -18.09375 19.609375 -16.78125 C 19.472656 -16.632812 19.257812 -16.5625 18.96875 -16.5625 C 18.09375 -16.5625 17.65625 -17 17.65625 -17.875 C 17.65625 -18.457031 17.875 -18.820312 18.3125 -18.96875 C 19.039062 -19.394531 19.800781 -20.117188 20.59375 -21.140625 C 21.394531 -22.160156 21.796875 -23.035156 21.796875 -23.765625 C 21.796875 -24.484375 21.359375 -24.84375 20.484375 -24.84375 C 18.304688 -24.84375 15.835938 -24.039062 13.078125 -22.4375 C 10.316406 -20.84375 7.878906 -18.992188 5.765625 -16.890625 C 3.660156 -14.785156 2.609375 -12.859375 2.609375 -11.109375 C 2.609375 -10.390625 3.484375 -10.03125 5.234375 -10.03125 C 6.242188 -10.03125 7.367188 -10.140625 8.609375 -10.359375 C 9.847656 -10.578125 11.046875 -10.753906 12.203125 -10.890625 C 13.367188 -11.179688 14.492188 -11.398438 15.578125 -11.546875 C 16.671875 -11.691406 17.65625 -11.765625 18.53125 -11.765625 C 21.289062 -11.765625 22.671875 -10.75 22.671875 -8.71875 C 22.523438 -8.570312 22.453125 -8.425781 22.453125 -8.28125 C 22.453125 -8.132812 22.378906 -7.914062 22.234375 -7.625 C 22.234375 -7.039062 22.378906 -6.894531 22.671875 -7.1875 C 25.285156 -7.914062 28.082031 -8.75 31.0625 -9.6875 C 34.039062 -10.632812 37.054688 -11.546875 40.109375 -12.421875 C 43.878906 -13.585938 47.65625 -14.710938 51.4375 -15.796875 C 55.21875 -16.890625 58.707031 -17.945312 61.90625 -18.96875 L 62.34375 -18.96875 C 63.0625 -18.96875 63.421875 -18.601562 63.421875 -17.875 C 63.421875 -17.144531 63.132812 -16.707031 62.5625 -16.5625 C 59.363281 -15.550781 55.875 -14.5 52.09375 -13.40625 C 48.3125 -12.3125 44.535156 -11.1875 40.765625 -10.03125 C 37.128906 -9.007812 33.601562 -7.953125 30.1875 -6.859375 C 26.769531 -5.773438 23.609375 -4.796875 20.703125 -3.921875 L 20.046875 -3.484375 C 17.867188 -0.285156 14.742188 2.835938 10.671875 5.890625 C 6.609375 8.941406 2.757812 10.46875 -0.875 10.46875 Z M -0.875 7.84375 C 1.59375 7.84375 4.316406 6.929688 7.296875 5.109375 C 10.273438 3.296875 12.859375 1.226562 15.046875 -1.09375 C 15.472656 -1.53125 15.328125 -1.75 14.609375 -1.75 C 10.097656 0.144531 6.171875 2 2.828125 3.8125 C -0.503906 5.625 -2.171875 6.820312 -2.171875 7.40625 C -2.171875 7.695312 -1.738281 7.84375 -0.875 7.84375 Z M -0.875 7.84375 "/></g></g></g><g fill="#4a1b0c" fill-opacity="1"><g transform="translate(488.1813, 779.867385)"><g/></g></g><g fill="#4a1b0c" fill-opacity="1"><g transform="translate(536.351492, 779.867385)"><g><path d="M 26.8125 2.171875 C 26.082031 1.742188 25.9375 1.164062 26.375 0.4375 C 31.457031 -7.550781 36.976562 -15 42.9375 -21.90625 C 48.894531 -28.8125 54.414062 -35.023438 59.5 -40.546875 C 64.59375 -45.921875 68.769531 -50.53125 72.03125 -54.375 C 75.300781 -58.226562 76.9375 -61.316406 76.9375 -63.640625 C 76.9375 -65.242188 75.410156 -66.046875 72.359375 -66.046875 C 69.023438 -66.046875 64.847656 -65.207031 59.828125 -63.53125 C 54.816406 -61.863281 49.765625 -59.539062 44.671875 -56.5625 C 39.585938 -53.582031 35.234375 -49.984375 31.609375 -45.765625 C 31.316406 -45.484375 31.023438 -45.34375 30.734375 -45.34375 C 29.859375 -45.34375 29.421875 -45.773438 29.421875 -46.640625 C 29.421875 -47.078125 29.492188 -47.367188 29.640625 -47.515625 C 33.421875 -51.878906 37.960938 -55.617188 43.265625 -58.734375 C 48.566406 -61.859375 53.867188 -64.289062 59.171875 -66.03125 C 64.484375 -67.78125 68.878906 -68.65625 72.359375 -68.65625 C 77.160156 -68.65625 79.5625 -66.984375 79.5625 -63.640625 C 79.5625 -60.878906 77.816406 -57.425781 74.328125 -53.28125 C 70.835938 -49.144531 66.550781 -44.316406 61.46875 -38.796875 C 58.851562 -36.035156 56.128906 -33.054688 53.296875 -29.859375 C 50.460938 -26.660156 47.59375 -23.390625 44.6875 -20.046875 C 43.226562 -18.160156 42.644531 -17.21875 42.9375 -17.21875 C 43.226562 -17.21875 44.171875 -17.945312 45.765625 -19.40625 C 51.578125 -25.070312 57.789062 -30.773438 64.40625 -36.515625 C 71.019531 -42.253906 77.523438 -47.484375 83.921875 -52.203125 C 90.316406 -56.921875 96.164062 -60.734375 101.46875 -63.640625 C 106.769531 -66.546875 111.019531 -68 114.21875 -68 C 117.414062 -68 119.015625 -66.617188 119.015625 -63.859375 C 119.015625 -61.242188 117.34375 -58.117188 114 -54.484375 C 110.65625 -50.859375 106.875 -46.9375 102.65625 -42.71875 C 99.03125 -39.082031 95.4375 -35.375 91.875 -31.59375 C 88.3125 -27.820312 85.367188 -24.082031 83.046875 -20.375 C 80.722656 -16.675781 79.5625 -13.226562 79.5625 -10.03125 C 79.5625 -6.976562 81.59375 -5.453125 85.65625 -5.453125 C 89 -5.453125 93.429688 -6.539062 98.953125 -8.71875 C 104.472656 -10.894531 109.707031 -13.144531 114.65625 -15.46875 C 116.101562 -16.195312 117.476562 -16.851562 118.78125 -17.4375 C 120.09375 -18.019531 121.257812 -18.53125 122.28125 -18.96875 L 122.9375 -18.96875 C 123.664062 -18.96875 124.03125 -18.601562 124.03125 -17.875 C 124.03125 -17.289062 123.8125 -16.851562 123.375 -16.5625 C 122.351562 -16.125 121.1875 -15.648438 119.875 -15.140625 C 118.570312 -14.640625 117.191406 -14.023438 115.734375 -13.296875 C 110.796875 -10.972656 105.457031 -8.644531 99.71875 -6.3125 C 93.976562 -3.988281 89.289062 -2.828125 85.65625 -2.828125 C 79.84375 -2.828125 76.9375 -5.226562 76.9375 -10.03125 C 76.9375 -13.65625 78.171875 -17.429688 80.640625 -21.359375 C 83.117188 -25.285156 86.207031 -29.207031 89.90625 -33.125 C 93.613281 -37.050781 97.285156 -40.832031 100.921875 -44.46875 C 105.128906 -48.675781 108.796875 -52.453125 111.921875 -55.796875 C 115.046875 -59.140625 116.609375 -61.828125 116.609375 -63.859375 C 116.609375 -65.023438 115.8125 -65.609375 114.21875 -65.609375 C 111.019531 -65.609375 106.695312 -64.007812 101.25 -60.8125 C 95.800781 -57.613281 89.695312 -53.472656 82.9375 -48.390625 C 76.175781 -43.304688 69.378906 -37.710938 62.546875 -31.609375 C 55.722656 -25.503906 49.332031 -19.507812 43.375 -13.625 C 37.414062 -7.738281 32.472656 -2.539062 28.546875 1.96875 C 27.972656 2.6875 27.394531 2.753906 26.8125 2.171875 Z M 26.8125 2.171875 "/></g></g></g><g fill="#4a1b0c" fill-opacity="1"><g transform="translate(654.270351, 779.867385)"><g><path d="M -83.265625 89.15625 C -86.753906 89.15625 -88.5 87.484375 -88.5 84.140625 C -88.5 82.097656 -86.023438 78.859375 -81.078125 74.421875 C -76.140625 69.992188 -68.257812 63.96875 -57.4375 56.34375 C -46.613281 48.71875 -32.410156 39.164062 -14.828125 27.6875 C -5.816406 18.09375 1.226562 10.132812 6.3125 3.8125 C 11.40625 -2.507812 15.550781 -7.628906 18.75 -11.546875 C 19.46875 -12.566406 19.679688 -13.148438 19.390625 -13.296875 C 19.109375 -13.441406 18.09375 -12.929688 16.34375 -11.765625 C 3.707031 -4.066406 -4.28125 -0.21875 -7.625 -0.21875 C -10.09375 -0.21875 -11.328125 -1.453125 -11.328125 -3.921875 C -11.328125 -5.660156 -10.164062 -7.726562 -7.84375 -10.125 C -5.519531 -12.53125 -2.578125 -14.820312 0.984375 -17 C 4.546875 -19.175781 8.210938 -20.988281 11.984375 -22.4375 C 15.765625 -23.894531 19.109375 -24.625 22.015625 -24.625 C 23.609375 -24.625 24.914062 -24.367188 25.9375 -23.859375 C 26.957031 -23.359375 27.46875 -22.523438 27.46875 -21.359375 C 27.46875 -20.335938 27.03125 -19.097656 26.15625 -17.640625 C 25.28125 -16.191406 23.460938 -13.65625 20.703125 -10.03125 C 17.941406 -6.539062 14.453125 -2.21875 10.234375 2.9375 C 6.023438 8.101562 0.503906 14.535156 -6.328125 22.234375 L 14.609375 8.5 C 24.335938 2.25 32.867188 -3.269531 40.203125 -8.0625 C 47.546875 -12.851562 52.523438 -16.269531 55.140625 -18.3125 C 55.285156 -18.457031 55.578125 -18.53125 56.015625 -18.53125 C 56.742188 -18.53125 57.109375 -18.164062 57.109375 -17.4375 C 57.109375 -16.851562 56.960938 -16.488281 56.671875 -16.34375 C 54.054688 -14.3125 49.078125 -10.859375 41.734375 -5.984375 C 34.398438 -1.117188 25.789062 4.4375 15.90625 10.6875 C 10.675781 14.019531 5.628906 17.285156 0.765625 20.484375 C -4.097656 23.679688 -8.710938 26.734375 -13.078125 29.640625 C -17.003906 33.859375 -21.363281 38.4375 -26.15625 43.375 C -30.945312 48.3125 -36.175781 53.6875 -41.84375 59.5 C -61.46875 79.269531 -75.273438 89.15625 -83.265625 89.15625 Z M -7.625 -2.609375 C -5.15625 -2.609375 2.398438 -6.390625 15.046875 -13.953125 C 17.222656 -15.253906 19.035156 -16.378906 20.484375 -17.328125 C 21.941406 -18.273438 23.101562 -19.035156 23.96875 -19.609375 L 24.625 -20.265625 C 24.769531 -20.554688 24.84375 -20.921875 24.84375 -21.359375 C 24.84375 -21.796875 23.898438 -22.015625 22.015625 -22.015625 C 19.546875 -22.015625 16.601562 -21.359375 13.1875 -20.046875 C 9.769531 -18.742188 6.390625 -17.070312 3.046875 -15.03125 C -0.296875 -13 -3.09375 -10.96875 -5.34375 -8.9375 C -7.59375 -6.90625 -8.71875 -5.234375 -8.71875 -3.921875 C -8.71875 -3.046875 -8.351562 -2.609375 -7.625 -2.609375 Z M -83.265625 86.53125 C -75.992188 86.53125 -62.769531 76.941406 -43.59375 57.765625 C -39.519531 53.546875 -35.703125 49.582031 -32.140625 45.875 C -28.585938 42.175781 -25.210938 38.65625 -22.015625 35.3125 C -44.390625 50.132812 -60.660156 61.429688 -70.828125 69.203125 C -81.003906 76.972656 -86.09375 81.953125 -86.09375 84.140625 C -86.09375 85.734375 -85.148438 86.53125 -83.265625 86.53125 Z M -83.265625 86.53125 "/></g></g></g><g fill="#4a1b0c" fill-opacity="1"><g transform="translate(705.710029, 779.867385)"><g><path d="M 25.71875 0 C 20.488281 0 17.875 -2.175781 17.875 -6.53125 C 17.875 -7.84375 18.160156 -9.1875 18.734375 -10.5625 C 19.316406 -11.945312 20.046875 -13.367188 20.921875 -14.828125 C 21.648438 -15.984375 22.015625 -16.632812 22.015625 -16.78125 C 22.015625 -16.925781 21.359375 -16.488281 20.046875 -15.46875 C 14.234375 -10.675781 9.617188 -7.191406 6.203125 -5.015625 C 2.796875 -2.835938 0.21875 -1.75 -1.53125 -1.75 C -3.707031 -1.75 -4.796875 -2.835938 -4.796875 -5.015625 C -4.796875 -8.929688 -0.582031 -14.671875 7.84375 -22.234375 C 8.132812 -22.523438 8.425781 -22.671875 8.71875 -22.671875 C 9.59375 -22.671875 10.03125 -22.234375 10.03125 -21.359375 C 10.03125 -21.066406 9.882812 -20.773438 9.59375 -20.484375 C 1.75 -13.515625 -2.171875 -8.429688 -2.171875 -5.234375 C -2.171875 -4.503906 -1.957031 -4.140625 -1.53125 -4.140625 C 0.800781 -4.140625 7.488281 -8.570312 18.53125 -17.4375 C 25.207031 -22.8125 28.910156 -25.5 29.640625 -25.5 C 31.242188 -25.5 31.71875 -24.914062 31.0625 -23.75 C 30.40625 -22.59375 29.492188 -21.285156 28.328125 -19.828125 C 26.734375 -17.941406 24.988281 -15.765625 23.09375 -13.296875 C 21.207031 -10.828125 20.265625 -8.570312 20.265625 -6.53125 C 20.265625 -3.769531 22.082031 -2.390625 25.71875 -2.390625 C 28.039062 -2.390625 31.488281 -3.222656 36.0625 -4.890625 C 40.644531 -6.566406 45.515625 -8.675781 50.671875 -11.21875 C 55.835938 -13.769531 60.304688 -16.351562 64.078125 -18.96875 C 64.222656 -19.113281 64.515625 -19.1875 64.953125 -19.1875 C 65.679688 -19.1875 66.046875 -18.75 66.046875 -17.875 C 66.046875 -17.582031 65.898438 -17.289062 65.609375 -17 C 61.972656 -14.382812 57.503906 -11.769531 52.203125 -9.15625 C 46.898438 -6.539062 41.8125 -4.359375 36.9375 -2.609375 C 32.070312 -0.867188 28.332031 0 25.71875 0 Z M 25.71875 0 "/></g></g></g><g fill="#4a1b0c" fill-opacity="1"><g transform="translate(765.650286, 779.867385)"><g><path d="M -83.265625 89.15625 C -86.753906 89.15625 -88.5 87.484375 -88.5 84.140625 C -88.5 82.097656 -86.023438 78.859375 -81.078125 74.421875 C -76.140625 69.992188 -68.257812 63.96875 -57.4375 56.34375 C -46.613281 48.71875 -32.410156 39.164062 -14.828125 27.6875 C -5.816406 18.09375 1.226562 10.132812 6.3125 3.8125 C 11.40625 -2.507812 15.550781 -7.628906 18.75 -11.546875 C 19.46875 -12.566406 19.679688 -13.148438 19.390625 -13.296875 C 19.109375 -13.441406 18.09375 -12.929688 16.34375 -11.765625 C 3.707031 -4.066406 -4.28125 -0.21875 -7.625 -0.21875 C -10.09375 -0.21875 -11.328125 -1.453125 -11.328125 -3.921875 C -11.328125 -5.660156 -10.164062 -7.726562 -7.84375 -10.125 C -5.519531 -12.53125 -2.578125 -14.820312 0.984375 -17 C 4.546875 -19.175781 8.210938 -20.988281 11.984375 -22.4375 C 15.765625 -23.894531 19.109375 -24.625 22.015625 -24.625 C 23.609375 -24.625 24.914062 -24.367188 25.9375 -23.859375 C 26.957031 -23.359375 27.46875 -22.523438 27.46875 -21.359375 C 27.46875 -20.335938 27.03125 -19.097656 26.15625 -17.640625 C 25.28125 -16.191406 23.460938 -13.65625 20.703125 -10.03125 C 17.941406 -6.539062 14.453125 -2.21875 10.234375 2.9375 C 6.023438 8.101562 0.503906 14.535156 -6.328125 22.234375 L 14.609375 8.5 C 24.335938 2.25 32.867188 -3.269531 40.203125 -8.0625 C 47.546875 -12.851562 52.523438 -16.269531 55.140625 -18.3125 C 55.285156 -18.457031 55.578125 -18.53125 56.015625 -18.53125 C 56.742188 -18.53125 57.109375 -18.164062 57.109375 -17.4375 C 57.109375 -16.851562 56.960938 -16.488281 56.671875 -16.34375 C 54.054688 -14.3125 49.078125 -10.859375 41.734375 -5.984375 C 34.398438 -1.117188 25.789062 4.4375 15.90625 10.6875 C 10.675781 14.019531 5.628906 17.285156 0.765625 20.484375 C -4.097656 23.679688 -8.710938 26.734375 -13.078125 29.640625 C -17.003906 33.859375 -21.363281 38.4375 -26.15625 43.375 C -30.945312 48.3125 -36.175781 53.6875 -41.84375 59.5 C -61.46875 79.269531 -75.273438 89.15625 -83.265625 89.15625 Z M -7.625 -2.609375 C -5.15625 -2.609375 2.398438 -6.390625 15.046875 -13.953125 C 17.222656 -15.253906 19.035156 -16.378906 20.484375 -17.328125 C 21.941406 -18.273438 23.101562 -19.035156 23.96875 -19.609375 L 24.625 -20.265625 C 24.769531 -20.554688 24.84375 -20.921875 24.84375 -21.359375 C 24.84375 -21.796875 23.898438 -22.015625 22.015625 -22.015625 C 19.546875 -22.015625 16.601562 -21.359375 13.1875 -20.046875 C 9.769531 -18.742188 6.390625 -17.070312 3.046875 -15.03125 C -0.296875 -13 -3.09375 -10.96875 -5.34375 -8.9375 C -7.59375 -6.90625 -8.71875 -5.234375 -8.71875 -3.921875 C -8.71875 -3.046875 -8.351562 -2.609375 -7.625 -2.609375 Z M -83.265625 86.53125 C -75.992188 86.53125 -62.769531 76.941406 -43.59375 57.765625 C -39.519531 53.546875 -35.703125 49.582031 -32.140625 45.875 C -28.585938 42.175781 -25.210938 38.65625 -22.015625 35.3125 C -44.390625 50.132812 -60.660156 61.429688 -70.828125 69.203125 C -81.003906 76.972656 -86.09375 81.953125 -86.09375 84.140625 C -86.09375 85.734375 -85.148438 86.53125 -83.265625 86.53125 Z M -83.265625 86.53125 "/></g></g></g><g fill="#4a1b0c" fill-opacity="1"><g transform="translate(817.089918, 779.867385)"><g><path d="M 15.6875 -28.125 C 14.820312 -28.125 14.390625 -28.484375 14.390625 -29.203125 C 14.390625 -29.640625 14.460938 -29.929688 14.609375 -30.078125 L 15.46875 -30.953125 C 15.757812 -31.390625 16.125 -31.894531 16.5625 -32.46875 C 17 -33.050781 17.289062 -33.488281 17.4375 -33.78125 C 17.726562 -34.070312 18.09375 -34.21875 18.53125 -34.21875 C 19.25 -34.21875 19.609375 -33.78125 19.609375 -32.90625 C 19.609375 -32.476562 19.539062 -32.191406 19.40625 -32.046875 C 18.820312 -31.460938 18.164062 -30.585938 17.4375 -29.421875 L 16.5625 -28.546875 C 16.414062 -28.265625 16.125 -28.125 15.6875 -28.125 Z M 1.75 1.3125 C -2.175781 1.3125 -4.140625 -0.578125 -4.140625 -4.359375 C -4.140625 -6.390625 -2.941406 -9.1875 -0.546875 -12.75 C 1.847656 -16.3125 5.082031 -20.125 9.15625 -24.1875 C 9.300781 -24.332031 9.59375 -24.40625 10.03125 -24.40625 C 10.894531 -24.40625 11.328125 -24.046875 11.328125 -23.328125 C 11.328125 -23.035156 11.179688 -22.742188 10.890625 -22.453125 C 7.265625 -18.671875 4.25 -15.109375 1.84375 -11.765625 C -0.550781 -8.421875 -1.75 -5.953125 -1.75 -4.359375 C -1.75 -2.328125 -0.582031 -1.3125 1.75 -1.3125 C 3.488281 -1.3125 5.992188 -1.851562 9.265625 -2.9375 C 12.535156 -4.03125 16.203125 -5.484375 20.265625 -7.296875 C 24.335938 -9.117188 28.332031 -11.046875 32.25 -13.078125 C 36.175781 -15.109375 39.519531 -17.070312 42.28125 -18.96875 L 42.9375 -18.96875 C 43.8125 -18.96875 44.25 -18.601562 44.25 -17.875 C 44.25 -17.4375 44.101562 -17.070312 43.8125 -16.78125 C 40.90625 -14.894531 37.453125 -12.894531 33.453125 -10.78125 C 29.460938 -8.675781 25.359375 -6.710938 21.140625 -4.890625 C 16.929688 -3.078125 13.117188 -1.585938 9.703125 -0.421875 C 6.285156 0.734375 3.632812 1.3125 1.75 1.3125 Z M 1.75 1.3125 "/></g></g></g><g fill="#4a1b0c" fill-opacity="1"><g transform="translate(855.233759, 779.867385)"><g/></g></g><g fill="#4a1b0c" fill-opacity="1"><g transform="translate(903.403951, 779.867385)"><g><path d="M -3.046875 48.390625 C -5.085938 48.390625 -6.648438 47.878906 -7.734375 46.859375 C -8.828125 45.847656 -9.375 44.613281 -9.375 43.15625 C -9.375 39.519531 -4.398438 34.539062 5.546875 28.21875 C 15.503906 21.90625 31.53125 13.15625 53.625 1.96875 C 56.09375 -1.375 58.453125 -4.679688 60.703125 -7.953125 C 62.953125 -11.222656 65.023438 -14.457031 66.921875 -17.65625 C 67.210938 -18.09375 67.210938 -18.421875 66.921875 -18.640625 C 66.628906 -18.859375 66.335938 -18.820312 66.046875 -18.53125 L 63.859375 -17 C 59.359375 -13.945312 54.273438 -10.675781 48.609375 -7.1875 C 42.941406 -3.707031 37.164062 -0.734375 31.28125 1.734375 C 25.394531 4.210938 19.691406 5.453125 14.171875 5.453125 C 3.992188 5.453125 -0.289062 0.875 1.3125 -8.28125 C 2.03125 -12.5 4.0625 -17.441406 7.40625 -23.109375 C 10.75 -28.773438 14.960938 -34.550781 20.046875 -40.4375 C 25.140625 -46.320312 30.769531 -51.769531 36.9375 -56.78125 C 43.113281 -61.789062 49.472656 -65.859375 56.015625 -68.984375 C 62.554688 -72.109375 68.953125 -73.671875 75.203125 -73.671875 C 83.628906 -73.671875 87.84375 -70.039062 87.84375 -62.78125 C 87.84375 -57.6875 83.988281 -51.363281 76.28125 -43.8125 C 76 -43.519531 75.710938 -43.375 75.421875 -43.375 C 74.546875 -43.375 74.109375 -43.8125 74.109375 -44.6875 C 74.109375 -44.976562 74.253906 -45.269531 74.546875 -45.5625 C 81.804688 -52.820312 85.4375 -58.5625 85.4375 -62.78125 C 85.4375 -68.300781 82.023438 -71.0625 75.203125 -71.0625 C 69.242188 -71.0625 63.066406 -69.570312 56.671875 -66.59375 C 50.273438 -63.613281 44.097656 -59.6875 38.140625 -54.8125 C 32.179688 -49.945312 26.769531 -44.679688 21.90625 -39.015625 C 17.039062 -33.347656 13.007812 -27.789062 9.8125 -22.34375 C 6.613281 -16.894531 4.648438 -12.0625 3.921875 -7.84375 C 2.617188 -0.582031 6.035156 3.046875 14.171875 3.046875 C 19.398438 3.046875 24.882812 1.847656 30.625 -0.546875 C 36.363281 -2.941406 41.992188 -5.847656 47.515625 -9.265625 C 53.035156 -12.679688 58.050781 -15.914062 62.5625 -18.96875 C 63.863281 -19.976562 65.128906 -20.921875 66.359375 -21.796875 C 67.597656 -22.671875 68.800781 -23.394531 69.96875 -23.96875 C 70.550781 -24.40625 71.132812 -24.335938 71.71875 -23.765625 C 72.289062 -23.328125 72.429688 -22.742188 72.140625 -22.015625 C 70.253906 -18.523438 68.1875 -14.960938 65.9375 -11.328125 C 63.6875 -7.703125 61.179688 -4.070312 58.421875 -0.4375 L 68.875 -5.671875 C 74.832031 -8.578125 80.097656 -11.191406 84.671875 -13.515625 C 89.253906 -15.835938 92.488281 -17.65625 94.375 -18.96875 L 95.03125 -18.96875 C 95.90625 -18.96875 96.34375 -18.601562 96.34375 -17.875 C 96.34375 -17.4375 96.125 -17.070312 95.6875 -16.78125 C 92.925781 -15.039062 87.765625 -12.316406 80.203125 -8.609375 C 72.648438 -4.898438 64.296875 -0.722656 55.140625 3.921875 C 49.035156 11.617188 42.457031 18.882812 35.40625 25.71875 C 28.363281 32.550781 21.5 38.035156 14.8125 42.171875 C 8.132812 46.316406 2.179688 48.390625 -3.046875 48.390625 Z M -3.046875 45.984375 C 1.597656 45.984375 6.898438 44.164062 12.859375 40.53125 C 18.816406 36.90625 24.992188 32.113281 31.390625 26.15625 C 37.785156 20.195312 43.890625 13.726562 49.703125 6.75 C 29.929688 16.925781 15.578125 24.882812 6.640625 30.625 C -2.285156 36.363281 -6.75 40.539062 -6.75 43.15625 C -6.75 45.039062 -5.515625 45.984375 -3.046875 45.984375 Z M -3.046875 45.984375 "/></g></g></g><g fill="#4a1b0c" fill-opacity="1"><g transform="translate(993.641294, 779.867385)"><g><path d="M 29.421875 0.21875 C 24.191406 0.21875 21.578125 -1.960938 21.578125 -6.328125 C 21.578125 -8.503906 22.15625 -10.753906 23.3125 -13.078125 C 24.476562 -15.398438 25.71875 -17.507812 27.03125 -19.40625 C 27.320312 -19.6875 27.394531 -19.898438 27.25 -20.046875 C 27.101562 -20.191406 26.882812 -20.117188 26.59375 -19.828125 C 25.570312 -19.253906 24.117188 -18.238281 22.234375 -16.78125 C 19.179688 -14.601562 15.800781 -12.242188 12.09375 -9.703125 C 8.382812 -7.160156 4.859375 -4.941406 1.515625 -3.046875 C -1.816406 -1.160156 -4.5 -0.21875 -6.53125 -0.21875 C -9.15625 -0.21875 -10.46875 -1.378906 -10.46875 -3.703125 C -10.46875 -5.585938 -9.445312 -7.65625 -7.40625 -9.90625 C -5.375 -12.164062 -2.832031 -14.3125 0.21875 -16.34375 C 3.269531 -18.382812 6.285156 -20.054688 9.265625 -21.359375 C 12.242188 -22.671875 14.675781 -23.328125 16.5625 -23.328125 C 19.46875 -23.328125 21.503906 -22.234375 22.671875 -20.046875 C 27.316406 -23.535156 30.078125 -25.28125 30.953125 -25.28125 C 31.972656 -25.28125 32.484375 -24.773438 32.484375 -23.765625 C 32.484375 -23.179688 31.679688 -21.726562 30.078125 -19.40625 C 28.773438 -17.507812 27.429688 -15.363281 26.046875 -12.96875 C 24.660156 -10.570312 23.96875 -8.359375 23.96875 -6.328125 C 23.96875 -3.703125 25.785156 -2.390625 29.421875 -2.390625 C 31.742188 -2.390625 35.15625 -3.113281 39.65625 -4.5625 C 44.164062 -6.019531 48.960938 -7.984375 54.046875 -10.453125 C 59.140625 -12.929688 63.71875 -15.695312 67.78125 -18.75 C 67.925781 -18.894531 68.21875 -18.96875 68.65625 -18.96875 C 69.382812 -18.96875 69.75 -18.601562 69.75 -17.875 C 69.75 -17.4375 69.601562 -17.070312 69.3125 -16.78125 C 65.238281 -13.875 60.585938 -11.113281 55.359375 -8.5 C 50.128906 -5.882812 45.148438 -3.773438 40.421875 -2.171875 C 35.703125 -0.578125 32.035156 0.21875 29.421875 0.21875 Z M -6.53125 -2.828125 C -4.789062 -2.828125 -2.359375 -3.695312 0.765625 -5.4375 C 3.890625 -7.1875 7.226562 -9.296875 10.78125 -11.765625 C 14.34375 -14.234375 17.578125 -16.5625 20.484375 -18.75 C 19.765625 -20.195312 18.457031 -20.921875 16.5625 -20.921875 C 14.675781 -20.921875 12.351562 -20.300781 9.59375 -19.0625 C 6.832031 -17.832031 4.109375 -16.234375 1.421875 -14.265625 C -1.265625 -12.304688 -3.515625 -10.382812 -5.328125 -8.5 C -7.148438 -6.613281 -8.0625 -5.015625 -8.0625 -3.703125 C -8.0625 -3.117188 -7.550781 -2.828125 -6.53125 -2.828125 Z M -6.53125 -2.828125 "/></g></g></g><g fill="#4a1b0c" fill-opacity="1"><g transform="translate(1057.28701, 779.867385)"><g><path d="M -45.984375 55.359375 C -47.296875 55.359375 -47.734375 54.632812 -47.296875 53.1875 L -47.078125 52.96875 C -46.929688 52.675781 -46.820312 52.421875 -46.75 52.203125 C -46.675781 51.984375 -46.566406 51.800781 -46.421875 51.65625 C -35.960938 35.238281 -24.300781 18.597656 -11.4375 1.734375 C 1.414062 -15.117188 14.671875 -31.609375 28.328125 -47.734375 C 19.035156 -47.296875 9.921875 -46.710938 0.984375 -45.984375 C -7.953125 -45.265625 -16.488281 -44.320312 -24.625 -43.15625 L -24.84375 -43.15625 C -25.71875 -43.15625 -26.15625 -43.59375 -26.15625 -44.46875 C -26.15625 -45.050781 -25.789062 -45.484375 -25.0625 -45.765625 C -16.488281 -46.929688 -7.519531 -47.878906 1.84375 -48.609375 C 11.21875 -49.335938 20.773438 -49.84375 30.515625 -50.125 C 36.617188 -57.394531 42.757812 -64.476562 48.9375 -71.375 C 55.113281 -78.28125 61.253906 -85.078125 67.359375 -91.765625 C 67.640625 -92.054688 67.925781 -92.203125 68.21875 -92.203125 C 69.09375 -92.203125 69.53125 -91.765625 69.53125 -90.890625 C 69.53125 -90.453125 69.457031 -90.160156 69.3125 -90.015625 C 63.5 -83.765625 57.648438 -77.296875 51.765625 -70.609375 C 45.878906 -63.929688 39.957031 -57.175781 34 -50.34375 C 52.3125 -51.070312 70.550781 -51.070312 88.71875 -50.34375 C 89.4375 -50.34375 89.796875 -49.910156 89.796875 -49.046875 C 89.796875 -48.316406 89.363281 -47.953125 88.5 -47.953125 C 79.195312 -48.242188 69.75 -48.390625 60.15625 -48.390625 C 50.5625 -48.390625 41.046875 -48.171875 31.609375 -47.734375 C 18.085938 -31.890625 4.9375 -15.648438 -7.84375 0.984375 C -20.632812 17.617188 -32.1875 34.070312 -42.5 50.34375 C -41.914062 50.632812 -41.914062 51.144531 -42.5 51.875 C -43.082031 52.75 -43.664062 53.546875 -44.25 54.265625 C -44.832031 54.992188 -45.410156 55.359375 -45.984375 55.359375 Z M -45.984375 55.359375 "/></g></g></g><g fill="#4a1b0c" fill-opacity="1"><g transform="translate(1089.763691, 779.867385)"><g><path d="M -13.296875 13.078125 C -14.460938 13.078125 -15.046875 12.492188 -15.046875 11.328125 C -15.046875 9.441406 -13.300781 5.8125 -9.8125 0.4375 C -6.320312 -4.9375 -1.671875 -11.328125 4.140625 -18.734375 C 9.953125 -26.148438 16.414062 -34.035156 23.53125 -42.390625 C 30.65625 -50.742188 37.882812 -58.953125 45.21875 -67.015625 C 52.5625 -75.085938 59.503906 -82.425781 66.046875 -89.03125 C 72.585938 -95.644531 78.21875 -100.914062 82.9375 -104.84375 C 87.65625 -108.769531 90.890625 -110.734375 92.640625 -110.734375 C 95.109375 -110.734375 96.34375 -109.492188 96.34375 -107.015625 C 96.34375 -104.835938 94.707031 -101.28125 91.4375 -96.34375 C 88.164062 -91.40625 83.660156 -85.664062 77.921875 -79.125 C 72.179688 -72.582031 65.492188 -65.640625 57.859375 -58.296875 C 50.234375 -50.960938 41.988281 -43.734375 33.125 -36.609375 C 24.257812 -29.492188 15.179688 -22.957031 5.890625 -17 C 2.398438 -12.5 -0.6875 -8.394531 -3.375 -4.6875 C -6.0625 -0.976562 -8.207031 2.179688 -9.8125 4.796875 C -10.675781 6.242188 -10.890625 6.96875 -10.453125 6.96875 C -10.023438 6.96875 -9.300781 6.390625 -8.28125 5.234375 C -6.832031 3.773438 -5.234375 2.207031 -3.484375 0.53125 C -1.742188 -1.132812 0.0703125 -2.835938 1.96875 -4.578125 C 14.75 -16.640625 23.320312 -22.671875 27.6875 -22.671875 C 29.71875 -22.671875 30.734375 -21.582031 30.734375 -19.40625 C 30.734375 -18.382812 30.515625 -17.21875 30.078125 -15.90625 C 29.640625 -14.601562 29.128906 -13.296875 28.546875 -11.984375 C 28.117188 -10.679688 27.6875 -9.445312 27.25 -8.28125 C 26.8125 -7.113281 26.59375 -6.097656 26.59375 -5.234375 C 26.59375 -2.765625 28.191406 -1.53125 31.390625 -1.53125 C 34.585938 -1.53125 38.765625 -2.472656 43.921875 -4.359375 C 49.078125 -6.242188 54.304688 -8.53125 59.609375 -11.21875 C 64.910156 -13.90625 69.453125 -16.488281 73.234375 -18.96875 L 73.890625 -18.96875 C 74.765625 -18.96875 75.203125 -18.601562 75.203125 -17.875 C 75.203125 -17.4375 74.984375 -17.070312 74.546875 -16.78125 C 70.765625 -14.3125 66.148438 -11.695312 60.703125 -8.9375 C 55.253906 -6.175781 49.878906 -3.8125 44.578125 -1.84375 C 39.273438 0.113281 34.878906 1.09375 31.390625 1.09375 C 26.585938 1.09375 24.1875 -1.015625 24.1875 -5.234375 C 24.1875 -6.390625 24.40625 -7.65625 24.84375 -9.03125 C 25.28125 -10.414062 25.789062 -11.765625 26.375 -13.078125 C 26.8125 -14.242188 27.242188 -15.40625 27.671875 -16.5625 C 28.109375 -17.726562 28.328125 -18.675781 28.328125 -19.40625 C 28.328125 -19.976562 28.113281 -20.265625 27.6875 -20.265625 C 24.050781 -20.265625 16.054688 -14.453125 3.703125 -2.828125 C 1.816406 -0.941406 0.00390625 0.832031 -1.734375 2.5 C -3.484375 4.175781 -5.082031 5.664062 -6.53125 6.96875 C -8.132812 8.71875 -9.550781 10.171875 -10.78125 11.328125 C -12.019531 12.492188 -12.859375 13.078125 -13.296875 13.078125 Z M 10.890625 -23.109375 C 19.609375 -29.066406 28.070312 -35.457031 36.28125 -42.28125 C 44.5 -49.113281 52.09375 -55.90625 59.0625 -62.65625 C 66.039062 -69.414062 72.144531 -75.8125 77.375 -81.84375 C 82.601562 -87.875 86.671875 -93.101562 89.578125 -97.53125 C 92.484375 -101.96875 93.9375 -105.128906 93.9375 -107.015625 C 93.9375 -107.742188 93.503906 -108.109375 92.640625 -108.109375 C 91.179688 -108.109375 88.378906 -106.328125 84.234375 -102.765625 C 80.097656 -99.210938 75.085938 -94.457031 69.203125 -88.5 C 63.316406 -82.539062 56.957031 -75.851562 50.125 -68.4375 C 43.300781 -61.03125 36.507812 -53.398438 29.75 -45.546875 C 22.988281 -37.703125 16.703125 -30.222656 10.890625 -23.109375 Z M 10.890625 -23.109375 "/></g></g></g><g fill="#4a1b0c" fill-opacity="1"><g transform="translate(1158.640547, 779.867385)"><g><path d="M -1.3125 1.75 C -4.070312 1.75 -5.453125 0.078125 -5.453125 -3.265625 C -5.453125 -6.316406 -4.179688 -9.476562 -1.640625 -12.75 C 0.898438 -16.019531 4.0625 -18.816406 7.84375 -21.140625 C 7.84375 -21.285156 7.878906 -21.359375 7.953125 -21.359375 C 8.023438 -21.359375 8.0625 -21.429688 8.0625 -21.578125 C 8.644531 -22.742188 9.375 -23.179688 10.25 -22.890625 C 10.539062 -22.742188 10.828125 -22.742188 11.109375 -22.890625 C 12.128906 -23.472656 13.148438 -23.832031 14.171875 -23.96875 C 14.171875 -24.113281 14.316406 -24.1875 14.609375 -24.1875 C 15.328125 -24.1875 15.6875 -23.753906 15.6875 -22.890625 C 15.6875 -22.160156 15.398438 -21.796875 14.828125 -21.796875 C 14.679688 -21.648438 14.535156 -21.578125 14.390625 -21.578125 C 14.242188 -21.578125 14.097656 -21.503906 13.953125 -21.359375 C 13.515625 -21.210938 13.515625 -20.992188 13.953125 -20.703125 C 19.910156 -17.210938 26.335938 -15.285156 33.234375 -14.921875 C 40.140625 -14.566406 46.207031 -15.914062 51.4375 -18.96875 L 52.09375 -18.96875 C 52.96875 -18.96875 53.40625 -18.601562 53.40625 -17.875 C 53.40625 -17.4375 53.113281 -17.070312 52.53125 -16.78125 C 46.863281 -13.582031 40.25 -12.164062 32.6875 -12.53125 C 25.132812 -12.894531 18.160156 -15.039062 11.765625 -18.96875 C 11.328125 -19.394531 11.109375 -19.25 11.109375 -18.53125 C 11.546875 -15.769531 11.179688 -12.789062 10.015625 -9.59375 C 8.859375 -6.394531 7.257812 -3.703125 5.21875 -1.515625 C 3.1875 0.660156 1.007812 1.75 -1.3125 1.75 Z M -1.3125 -0.65625 C 0.4375 -0.65625 2.144531 -1.671875 3.8125 -3.703125 C 5.488281 -5.734375 6.832031 -8.164062 7.84375 -11 C 8.863281 -13.832031 9.15625 -16.414062 8.71875 -18.75 C 5.375 -16.707031 2.578125 -14.234375 0.328125 -11.328125 C -1.921875 -8.421875 -3.046875 -5.734375 -3.046875 -3.265625 C -3.046875 -1.523438 -2.46875 -0.65625 -1.3125 -0.65625 Z M -1.3125 -0.65625 "/></g></g></g><g fill="#4a1b0c" fill-opacity="1"><g transform="translate(1205.720804, 779.867385)"><g><path d="M -6.109375 0 C -7.554688 0 -8.132812 -0.796875 -7.84375 -2.390625 C -7.695312 -3.117188 -6.785156 -4.679688 -5.109375 -7.078125 C -3.441406 -9.484375 -1.300781 -12.242188 1.3125 -15.359375 C 3.925781 -18.484375 6.796875 -21.679688 9.921875 -24.953125 C 13.046875 -28.222656 16.207031 -31.019531 19.40625 -33.34375 C 19.539062 -33.488281 19.828125 -33.5625 20.265625 -33.5625 C 20.992188 -33.5625 21.359375 -33.203125 21.359375 -32.484375 C 21.359375 -32.046875 21.210938 -31.679688 20.921875 -31.390625 C 16.566406 -28.191406 12.28125 -24.191406 8.0625 -19.390625 C 3.851562 -14.597656 0.507812 -10.53125 -1.96875 -7.1875 C -2.101562 -6.894531 -2.132812 -6.601562 -2.0625 -6.3125 C -2 -6.03125 -1.675781 -6.035156 -1.09375 -6.328125 C 15.757812 -18.523438 26.804688 -24.625 32.046875 -24.625 C 34.367188 -24.625 35.53125 -23.609375 35.53125 -21.578125 C 35.53125 -20.554688 35.347656 -19.242188 34.984375 -17.640625 C 34.617188 -16.046875 34.289062 -14.453125 34 -12.859375 C 33.125 -10.097656 32.6875 -7.988281 32.6875 -6.53125 C 32.6875 -5.375 33.488281 -4.796875 35.09375 -4.796875 C 38.726562 -4.796875 43.59375 -6.066406 49.6875 -8.609375 C 55.789062 -11.148438 62.113281 -14.601562 68.65625 -18.96875 L 69.3125 -18.96875 C 70.1875 -18.96875 70.625 -18.601562 70.625 -17.875 C 70.625 -17.4375 70.40625 -17.070312 69.96875 -16.78125 C 63.28125 -12.425781 56.773438 -8.9375 50.453125 -6.3125 C 44.140625 -3.695312 39.019531 -2.390625 35.09375 -2.390625 C 31.75 -2.390625 30.078125 -3.769531 30.078125 -6.53125 C 30.078125 -7.257812 30.222656 -8.238281 30.515625 -9.46875 C 30.804688 -10.707031 31.097656 -12.054688 31.390625 -13.515625 C 31.828125 -15.109375 32.222656 -16.628906 32.578125 -18.078125 C 32.941406 -19.535156 33.125 -20.554688 33.125 -21.140625 C 33.125 -21.867188 32.765625 -22.234375 32.046875 -22.234375 C 29.710938 -22.234375 26.507812 -21.101562 22.4375 -18.84375 C 18.375 -16.59375 14.234375 -13.976562 10.015625 -11 C 5.804688 -8.019531 2.25 -5.515625 -0.65625 -3.484375 C -1.957031 -2.609375 -3.082031 -1.804688 -4.03125 -1.078125 C -4.976562 -0.359375 -5.671875 0 -6.109375 0 Z M -6.109375 0 "/></g></g></g><g fill="#4a1b0c" fill-opacity="1"><g transform="translate(1270.02039, 779.867385)"><g><path d="M 22.015625 0.21875 C 16.785156 0.21875 14.171875 -1.960938 14.171875 -6.328125 C 14.171875 -8.210938 15.769531 -11.769531 18.96875 -17 C 19.257812 -17.4375 19.332031 -17.726562 19.1875 -17.875 C 19.039062 -18.019531 18.75 -17.945312 18.3125 -17.65625 C 12.644531 -12.425781 7.847656 -8.210938 3.921875 -5.015625 C -0.00390625 -1.816406 -2.910156 -0.21875 -4.796875 -0.21875 C -6.679688 -0.21875 -7.625 -1.234375 -7.625 -3.265625 C -7.625 -6.023438 -6.207031 -9.003906 -3.375 -12.203125 C -0.539062 -15.398438 2.832031 -18.195312 6.75 -20.59375 C 10.675781 -22.988281 14.238281 -24.1875 17.4375 -24.1875 C 19.03125 -24.1875 20.191406 -23.898438 20.921875 -23.328125 C 21.941406 -24.335938 22.957031 -25.28125 23.96875 -26.15625 C 24.988281 -27.03125 26.007812 -27.972656 27.03125 -28.984375 C 31.53125 -35.234375 36.722656 -42.097656 42.609375 -49.578125 C 48.492188 -57.066406 54.597656 -64.476562 60.921875 -71.8125 C 67.242188 -79.15625 73.238281 -85.84375 78.90625 -91.875 C 84.570312 -97.90625 89.472656 -102.734375 93.609375 -106.359375 C 97.753906 -109.992188 100.628906 -111.8125 102.234375 -111.8125 C 104.265625 -111.8125 105.28125 -110.867188 105.28125 -108.984375 C 105.28125 -107.816406 103.679688 -105.195312 100.484375 -101.125 C 97.285156 -97.0625 92.960938 -92.085938 87.515625 -86.203125 C 82.066406 -80.316406 76 -73.882812 69.3125 -66.90625 C 62.625 -59.9375 55.71875 -52.960938 48.59375 -45.984375 C 41.476562 -39.015625 34.65625 -32.550781 28.125 -26.59375 L 23.96875 -20.484375 C 24.40625 -19.617188 24.625 -18.53125 24.625 -17.21875 C 24.332031 -16.488281 23.898438 -16.125 23.328125 -16.125 C 22.453125 -16.125 22.015625 -16.5625 22.015625 -17.4375 C 22.015625 -17.582031 22.015625 -17.65625 22.015625 -17.65625 C 20.410156 -14.894531 19.097656 -12.566406 18.078125 -10.671875 C 17.066406 -8.785156 16.5625 -7.335938 16.5625 -6.328125 C 16.5625 -3.703125 18.378906 -2.390625 22.015625 -2.390625 C 24.628906 -2.390625 28.257812 -3.078125 32.90625 -4.453125 C 37.5625 -5.835938 42.578125 -7.765625 47.953125 -10.234375 C 53.328125 -12.710938 58.410156 -15.625 63.203125 -18.96875 C 63.347656 -18.96875 63.457031 -19.003906 63.53125 -19.078125 C 63.601562 -19.148438 63.710938 -19.1875 63.859375 -19.1875 C 64.734375 -19.1875 65.171875 -18.75 65.171875 -17.875 C 65.171875 -17.4375 64.953125 -17.070312 64.515625 -16.78125 C 59.578125 -13.4375 54.347656 -10.457031 48.828125 -7.84375 C 43.304688 -5.226562 38.144531 -3.226562 33.34375 -1.84375 C 28.550781 -0.46875 24.773438 0.21875 22.015625 0.21875 Z M 36.84375 -38.359375 C 44.394531 -45.628906 52.054688 -53.1875 59.828125 -61.03125 C 67.609375 -68.875 74.726562 -76.25 81.1875 -83.15625 C 87.65625 -90.0625 92.882812 -95.835938 96.875 -100.484375 C 100.875 -105.128906 102.875 -107.960938 102.875 -108.984375 C 102.875 -109.273438 102.660156 -109.421875 102.234375 -109.421875 C 101.066406 -109.421875 98.8125 -107.96875 95.46875 -105.0625 C 92.125 -102.15625 88.125 -98.226562 83.46875 -93.28125 C 78.820312 -88.34375 73.773438 -82.785156 68.328125 -76.609375 C 62.878906 -70.441406 57.429688 -64.050781 51.984375 -57.4375 C 46.535156 -50.820312 41.488281 -44.460938 36.84375 -38.359375 Z M -4.359375 -2.828125 C -3.191406 -2.828125 -0.539062 -4.535156 3.59375 -7.953125 C 7.738281 -11.367188 12.863281 -15.910156 18.96875 -21.578125 L 17.4375 -21.578125 C 14.675781 -21.578125 11.550781 -20.519531 8.0625 -18.40625 C 4.570312 -16.300781 1.519531 -13.832031 -1.09375 -11 C -3.707031 -8.164062 -5.015625 -5.660156 -5.015625 -3.484375 C -5.015625 -3.046875 -4.796875 -2.828125 -4.359375 -2.828125 Z M -4.359375 -2.828125 "/></g></g></g><g fill="#4a1b0c" fill-opacity="1"><g transform="translate(1329.088836, 779.867385)"><g><path d="M 25.71875 0 C 20.488281 0 17.875 -2.175781 17.875 -6.53125 C 17.875 -7.84375 18.160156 -9.1875 18.734375 -10.5625 C 19.316406 -11.945312 20.046875 -13.367188 20.921875 -14.828125 C 21.648438 -15.984375 22.015625 -16.632812 22.015625 -16.78125 C 22.015625 -16.925781 21.359375 -16.488281 20.046875 -15.46875 C 14.234375 -10.675781 9.617188 -7.191406 6.203125 -5.015625 C 2.796875 -2.835938 0.21875 -1.75 -1.53125 -1.75 C -3.707031 -1.75 -4.796875 -2.835938 -4.796875 -5.015625 C -4.796875 -8.929688 -0.582031 -14.671875 7.84375 -22.234375 C 8.132812 -22.523438 8.425781 -22.671875 8.71875 -22.671875 C 9.59375 -22.671875 10.03125 -22.234375 10.03125 -21.359375 C 10.03125 -21.066406 9.882812 -20.773438 9.59375 -20.484375 C 1.75 -13.515625 -2.171875 -8.429688 -2.171875 -5.234375 C -2.171875 -4.503906 -1.957031 -4.140625 -1.53125 -4.140625 C 0.800781 -4.140625 7.488281 -8.570312 18.53125 -17.4375 C 25.207031 -22.8125 28.910156 -25.5 29.640625 -25.5 C 31.242188 -25.5 31.71875 -24.914062 31.0625 -23.75 C 30.40625 -22.59375 29.492188 -21.285156 28.328125 -19.828125 C 26.734375 -17.941406 24.988281 -15.765625 23.09375 -13.296875 C 21.207031 -10.828125 20.265625 -8.570312 20.265625 -6.53125 C 20.265625 -3.769531 22.082031 -2.390625 25.71875 -2.390625 C 28.039062 -2.390625 31.488281 -3.222656 36.0625 -4.890625 C 40.644531 -6.566406 45.515625 -8.675781 50.671875 -11.21875 C 55.835938 -13.769531 60.304688 -16.351562 64.078125 -18.96875 C 64.222656 -19.113281 64.515625 -19.1875 64.953125 -19.1875 C 65.679688 -19.1875 66.046875 -18.75 66.046875 -17.875 C 66.046875 -17.582031 65.898438 -17.289062 65.609375 -17 C 61.972656 -14.382812 57.503906 -11.769531 52.203125 -9.15625 C 46.898438 -6.539062 41.8125 -4.359375 36.9375 -2.609375 C 32.070312 -0.867188 28.332031 0 25.71875 0 Z M 25.71875 0 "/></g></g></g></svg>